<svg width="361" height="474" viewBox="0 0 361 474" fill="none" xmlns="http://www.w3.org/2000/svg">
<path d="M15.7182 345.813L72.2763 319.015C74.9693 317.739 78.091 317.73 80.7909 318.992L138.233 345.828C141.751 347.472 144 351.004 144 354.888V426.409C144 430.259 141.79 433.767 138.317 435.429L80.8757 462.92C78.1285 464.234 74.932 464.226 72.1922 462.896L15.6335 435.444C12.1877 433.771 10 430.278 10 426.447V354.85C10 350.986 12.2262 347.468 15.7182 345.813Z" fill="url(#paint0_linear_997_2130)"/>
<path d="M15.7182 345.813L72.2763 319.015C74.9693 317.739 78.091 317.73 80.7909 318.992L138.233 345.828C141.751 347.472 144 351.004 144 354.888V426.409C144 430.259 141.79 433.767 138.317 435.429L80.8757 462.92C78.1285 464.234 74.932 464.226 72.1922 462.896L15.6335 435.444C12.1877 433.771 10 430.278 10 426.447V354.85C10 350.986 12.2262 347.468 15.7182 345.813Z" fill="url(#paint1_radial_997_2130)" fill-opacity="0.7"/>
<path d="M15.7182 345.813L72.2763 319.015C74.9693 317.739 78.091 317.73 80.7909 318.992L138.233 345.828C141.751 347.472 144 351.004 144 354.888V426.409C144 430.259 141.79 433.767 138.317 435.429L80.8757 462.92C78.1285 464.234 74.932 464.226 72.1922 462.896L15.6335 435.444C12.1877 433.771 10 430.278 10 426.447V354.85C10 350.986 12.2262 347.468 15.7182 345.813Z" fill="url(#paint2_radial_997_2130)" fill-opacity="0.5"/>
<path d="M15.7182 345.813L72.2763 319.015C74.9693 317.739 78.091 317.73 80.7909 318.992L138.233 345.828C141.751 347.472 144 351.004 144 354.888V426.409C144 430.259 141.79 433.767 138.317 435.429L80.8757 462.92C78.1285 464.234 74.932 464.226 72.1922 462.896L15.6335 435.444C12.1877 433.771 10 430.278 10 426.447V354.85C10 350.986 12.2262 347.468 15.7182 345.813Z" fill="url(#paint3_radial_997_2130)" fill-opacity="0.5"/>
<path fill-rule="evenodd" clip-rule="evenodd" d="M11.4363 336.776L67.9945 309.978L72.2763 319.015L15.7182 345.813C12.2262 347.468 10 350.986 10 354.85V426.447C10 430.278 12.1877 433.771 15.6335 435.444L72.1922 462.896C74.932 464.226 78.1285 464.234 80.8757 462.92L138.317 435.429C141.79 433.767 144 430.259 144 426.409V354.888C144 351.004 141.751 347.472 138.233 345.828L80.7909 318.992C78.091 317.73 74.9693 317.739 72.2763 319.015L67.9945 309.978C73.3804 307.426 79.6239 307.409 85.0236 309.932L142.465 336.768C149.503 340.056 154 347.121 154 354.888V426.409C154 434.109 149.579 441.125 142.634 444.449L85.1926 471.94C79.6983 474.569 73.3053 474.552 67.8257 471.892L11.2669 444.44C4.37546 441.095 0 434.108 0 426.447V354.85C0 347.122 4.45245 340.085 11.4363 336.776Z" fill="url(#paint4_linear_997_2130)"/>
<path fill-rule="evenodd" clip-rule="evenodd" d="M11.4363 336.776L67.9945 309.978L72.2763 319.015L15.7182 345.813C12.2262 347.468 10 350.986 10 354.85V426.447C10 430.278 12.1877 433.771 15.6335 435.444L72.1922 462.896C74.932 464.226 78.1285 464.234 80.8757 462.92L138.317 435.429C141.79 433.767 144 430.259 144 426.409V354.888C144 351.004 141.751 347.472 138.233 345.828L80.7909 318.992C78.091 317.73 74.9693 317.739 72.2763 319.015L67.9945 309.978C73.3804 307.426 79.6239 307.409 85.0236 309.932L142.465 336.768C149.503 340.056 154 347.121 154 354.888V426.409C154 434.109 149.579 441.125 142.634 444.449L85.1926 471.94C79.6983 474.569 73.3053 474.552 67.8257 471.892L11.2669 444.44C4.37546 441.095 0 434.108 0 426.447V354.85C0 347.122 4.45245 340.085 11.4363 336.776Z" fill="url(#paint5_radial_997_2130)" fill-opacity="0.7"/>
<path d="M25.7126 43.9876L95.1792 11.0204C97.8753 9.74093 101.002 9.73244 103.705 10.9973L174.238 44.0025C177.754 45.6476 180 49.1785 180 53.06V141.086C180 144.934 177.792 148.44 174.323 150.103L103.79 183.913C101.04 185.232 97.838 185.223 95.095 183.889L25.6278 150.118C22.1852 148.444 20 144.952 20 141.124V53.0219C20 49.16 22.2237 45.6434 25.7126 43.9876Z" fill="url(#paint6_linear_997_2130)"/>
<path d="M25.7126 43.9876L95.1792 11.0204C97.8753 9.74093 101.002 9.73244 103.705 10.9973L174.238 44.0025C177.754 45.6476 180 49.1785 180 53.06V141.086C180 144.934 177.792 148.44 174.323 150.103L103.79 183.913C101.04 185.232 97.838 185.223 95.095 183.889L25.6278 150.118C22.1852 148.444 20 144.952 20 141.124V53.0219C20 49.16 22.2237 45.6434 25.7126 43.9876Z" fill="url(#paint7_radial_997_2130)" fill-opacity="0.7"/>
<path d="M25.7126 43.9876L95.1792 11.0204C97.8753 9.74093 101.002 9.73244 103.705 10.9973L174.238 44.0025C177.754 45.6476 180 49.1785 180 53.06V141.086C180 144.934 177.792 148.44 174.323 150.103L103.79 183.913C101.04 185.232 97.838 185.223 95.095 183.889L25.6278 150.118C22.1852 148.444 20 144.952 20 141.124V53.0219C20 49.16 22.2237 45.6434 25.7126 43.9876Z" fill="url(#paint8_radial_997_2130)" fill-opacity="0.5"/>
<path d="M25.7126 43.9876L95.1792 11.0204C97.8753 9.74093 101.002 9.73244 103.705 10.9973L174.238 44.0025C177.754 45.6476 180 49.1785 180 53.06V141.086C180 144.934 177.792 148.44 174.323 150.103L103.79 183.913C101.04 185.232 97.838 185.223 95.095 183.889L25.6278 150.118C22.1852 148.444 20 144.952 20 141.124V53.0219C20 49.16 22.2237 45.6434 25.7126 43.9876Z" fill="url(#paint9_radial_997_2130)" fill-opacity="0.5"/>
<path fill-rule="evenodd" clip-rule="evenodd" d="M174.323 150.103L178.645 159.121L108.112 192.931C102.612 195.567 96.2087 195.55 90.7228 192.883L21.2556 159.111C14.3703 155.764 10 148.78 10 141.124V53.0219C10 45.2982 14.4473 38.2648 21.4251 34.9534L25.7126 43.9876C22.2237 45.6434 20 49.16 20 53.0219V141.124C20 144.952 22.1852 148.444 25.6278 150.118L95.095 183.889C97.838 185.223 101.04 185.232 103.79 183.913L174.323 150.103ZM174.323 150.103C177.792 148.44 180 144.934 180 141.086V53.06C180 49.1785 177.754 45.6476 174.238 44.0025L103.705 10.9973C101.002 9.73244 97.8753 9.74093 95.1792 11.0204L25.7126 43.9876L21.4251 34.9534L90.8918 1.98617C96.2839 -0.572832 102.537 -0.589815 107.943 1.93986L178.477 34.9451C185.508 38.2353 190 45.297 190 53.06V141.086C190 148.781 185.585 155.794 178.645 159.121L174.323 150.103Z" fill="url(#paint10_linear_997_2130)"/>
<path fill-rule="evenodd" clip-rule="evenodd" d="M174.323 150.103L178.645 159.121L108.112 192.931C102.612 195.567 96.2087 195.55 90.7228 192.883L21.2556 159.111C14.3703 155.764 10 148.78 10 141.124V53.0219C10 45.2982 14.4473 38.2648 21.4251 34.9534L25.7126 43.9876C22.2237 45.6434 20 49.16 20 53.0219V141.124C20 144.952 22.1852 148.444 25.6278 150.118L95.095 183.889C97.838 185.223 101.04 185.232 103.79 183.913L174.323 150.103ZM174.323 150.103C177.792 148.44 180 144.934 180 141.086V53.06C180 49.1785 177.754 45.6476 174.238 44.0025L103.705 10.9973C101.002 9.73244 97.8753 9.74093 95.1792 11.0204L25.7126 43.9876L21.4251 34.9534L90.8918 1.98617C96.2839 -0.572832 102.537 -0.589815 107.943 1.93986L178.477 34.9451C185.508 38.2353 190 45.297 190 53.06V141.086C190 148.781 185.585 155.794 178.645 159.121L174.323 150.103Z" fill="url(#paint11_radial_997_2130)" fill-opacity="0.7"/>
<g filter="url(#filter0_d_997_2130)">
<path d="M94.092 177.678L175.138 139.874C183.126 136.148 192.348 136.123 200.356 139.806L282.798 177.723C293.442 182.619 300.263 193.263 300.263 204.979V304.953C300.263 316.569 293.557 327.141 283.049 332.092L200.608 370.933C192.459 374.772 183.016 374.747 174.888 370.863L93.8396 332.136C83.4121 327.154 76.7737 316.624 76.7737 305.068V204.865C76.7737 193.208 83.5271 182.606 94.092 177.678Z" fill="#AA7B00"/>
<path d="M94.092 177.678L175.138 139.874C183.126 136.148 192.348 136.123 200.356 139.806L282.798 177.723C293.442 182.619 300.263 193.263 300.263 204.979V304.953C300.263 316.569 293.557 327.141 283.049 332.092L200.608 370.933C192.459 374.772 183.016 374.747 174.888 370.863L93.8396 332.136C83.4121 327.154 76.7737 316.624 76.7737 305.068V204.865C76.7737 193.208 83.5271 182.606 94.092 177.678Z" fill="url(#paint12_linear_997_2130)"/>
<path d="M94.092 177.678L175.138 139.874C183.126 136.148 192.348 136.123 200.356 139.806L282.798 177.723C293.442 182.619 300.263 193.263 300.263 204.979V304.953C300.263 316.569 293.557 327.141 283.049 332.092L200.608 370.933C192.459 374.772 183.016 374.747 174.888 370.863L93.8396 332.136C83.4121 327.154 76.7737 316.624 76.7737 305.068V204.865C76.7737 193.208 83.5271 182.606 94.092 177.678Z" fill="url(#paint13_radial_997_2130)" fill-opacity="0.7"/>
<path d="M94.092 177.678L175.138 139.874C183.126 136.148 192.348 136.123 200.356 139.806L282.798 177.723C293.442 182.619 300.263 193.263 300.263 204.979V304.953C300.263 316.569 293.557 327.141 283.049 332.092L200.608 370.933C192.459 374.772 183.016 374.747 174.888 370.863L93.8396 332.136C83.4121 327.154 76.7737 316.624 76.7737 305.068V204.865C76.7737 193.208 83.5271 182.606 94.092 177.678Z" fill="url(#paint14_radial_997_2130)" fill-opacity="0.5"/>
<path d="M94.092 177.678L175.138 139.874C183.126 136.148 192.348 136.123 200.356 139.806L282.798 177.723C293.442 182.619 300.263 193.263 300.263 204.979V304.953C300.263 316.569 293.557 327.141 283.049 332.092L200.608 370.933C192.459 374.772 183.016 374.747 174.888 370.863L93.8396 332.136C83.4121 327.154 76.7737 316.624 76.7737 305.068V204.865C76.7737 193.208 83.5271 182.606 94.092 177.678Z" fill="url(#paint15_radial_997_2130)" fill-opacity="0.5"/>
</g>
<g filter="url(#filter1_d_997_2130)">
<path fill-rule="evenodd" clip-rule="evenodd" d="M89.8648 168.615L170.911 130.811C181.561 125.843 193.857 125.81 204.534 130.721L286.977 168.638C301.169 175.165 310.263 189.358 310.263 204.979V304.953C310.263 320.441 301.322 334.537 287.311 341.138L204.87 379.979C194.005 385.098 181.414 385.064 170.576 379.886L89.5283 341.159C75.6249 334.516 66.7737 320.477 66.7737 305.068V204.865C66.7737 189.322 75.7782 175.186 89.8648 168.615ZM175.138 139.874L94.092 177.678C83.5271 182.606 76.7737 193.208 76.7737 204.865V305.068C76.7737 316.624 83.4121 327.154 93.8396 332.136L174.888 370.863C183.016 374.747 192.459 374.772 200.608 370.933L283.049 332.092C293.557 327.141 300.263 316.569 300.263 304.953V204.979C300.263 193.263 293.442 182.619 282.798 177.723L200.355 139.806C192.348 136.123 183.126 136.148 175.138 139.874Z" fill="url(#paint16_linear_997_2130)"/>
<path fill-rule="evenodd" clip-rule="evenodd" d="M89.8648 168.615L170.911 130.811C181.561 125.843 193.857 125.81 204.534 130.721L286.977 168.638C301.169 175.165 310.263 189.358 310.263 204.979V304.953C310.263 320.441 301.322 334.537 287.311 341.138L204.87 379.979C194.005 385.098 181.414 385.064 170.576 379.886L89.5283 341.159C75.6249 334.516 66.7737 320.477 66.7737 305.068V204.865C66.7737 189.322 75.7782 175.186 89.8648 168.615ZM175.138 139.874L94.092 177.678C83.5271 182.606 76.7737 193.208 76.7737 204.865V305.068C76.7737 316.624 83.4121 327.154 93.8396 332.136L174.888 370.863C183.016 374.747 192.459 374.772 200.608 370.933L283.049 332.092C293.557 327.141 300.263 316.569 300.263 304.953V204.979C300.263 193.263 293.442 182.619 282.798 177.723L200.355 139.806C192.348 136.123 183.126 136.148 175.138 139.874Z" fill="url(#paint17_radial_997_2130)" fill-opacity="0.7"/>
</g>
<g filter="url(#filter2_d_997_2130)">
<path d="M179.804 286.54V201.627L172.552 196.671L196.379 196.671V279.639L201.451 284.793C202.106 285.458 202.837 286.045 203.63 286.54L179.804 286.54Z" fill="white"/>
<path d="M207.983 259.378L207.983 227.074L204.022 224.47V212.753L217.489 221.018L217.489 265.433L204.022 273.699V261.981L207.983 259.378Z" fill="white"/>
<path d="M168.462 227.074V259.378L172.423 261.981V273.699L158.956 265.433V221.018L172.423 212.753V224.47L168.462 227.074Z" fill="white"/>
</g>
<path d="M130.175 313.317H127.858V312.026H127.379C126.516 312.026 125.734 311.918 125.031 311.703C124.338 311.477 123.742 311.154 123.242 310.735C122.752 310.315 122.374 309.794 122.107 309.17C121.841 308.546 121.708 307.83 121.708 307.023C121.708 306.216 121.841 305.501 122.107 304.877C122.374 304.253 122.752 303.731 123.242 303.312C123.742 302.892 124.338 302.575 125.031 302.359C125.734 302.133 126.516 302.021 127.379 302.021H127.858V300.729H130.175V302.021H130.654C131.516 302.021 132.294 302.133 132.986 302.359C133.689 302.575 134.285 302.892 134.775 303.312C135.276 303.731 135.659 304.253 135.925 304.877C136.192 305.501 136.325 306.216 136.325 307.023C136.325 307.83 136.192 308.546 135.925 309.17C135.659 309.794 135.276 310.315 134.775 310.735C134.285 311.154 133.689 311.477 132.986 311.703C132.294 311.918 131.516 312.026 130.654 312.026H130.175V313.317ZM130.175 310.816H130.654C131.09 310.816 131.5 310.746 131.884 310.606C132.278 310.466 132.619 310.245 132.906 309.944C133.194 309.643 133.423 309.256 133.593 308.782C133.763 308.298 133.849 307.712 133.849 307.023C133.849 306.335 133.763 305.754 133.593 305.28C133.423 304.796 133.194 304.404 132.906 304.102C132.619 303.801 132.278 303.58 131.884 303.441C131.5 303.301 131.09 303.231 130.654 303.231H130.175V310.816ZM127.858 303.231H127.379C126.942 303.231 126.527 303.301 126.133 303.441C125.75 303.58 125.414 303.801 125.127 304.102C124.839 304.404 124.61 304.796 124.44 305.28C124.269 305.754 124.184 306.335 124.184 307.023C124.184 307.712 124.269 308.298 124.44 308.782C124.61 309.256 124.839 309.643 125.127 309.944C125.414 310.245 125.75 310.466 126.133 310.606C126.527 310.746 126.942 310.816 127.379 310.816H127.858V303.231Z" fill="black"/>
<path d="M139.921 310.009C139.921 311.031 140.533 311.542 141.758 311.542H143.994V308.476H141.758C140.533 308.476 139.921 308.987 139.921 310.009ZM143.994 307.346C143.994 306.571 143.792 306.001 143.387 305.635C142.993 305.27 142.477 305.087 141.838 305.087C141.359 305.087 140.89 305.162 140.432 305.313C139.974 305.452 139.564 305.646 139.202 305.894L138.643 304.925C138.877 304.764 139.133 304.624 139.41 304.506C139.697 304.387 139.99 304.291 140.288 304.215C140.587 304.129 140.879 304.065 141.167 304.022C141.465 303.979 141.742 303.957 141.998 303.957C142.679 303.957 143.281 304.038 143.803 304.199C144.325 304.36 144.767 304.592 145.129 304.893C145.491 305.194 145.762 305.555 145.943 305.974C146.135 306.383 146.231 306.84 146.231 307.346V312.671H141.758C140.31 312.671 139.239 312.451 138.547 312.01C137.866 311.569 137.525 310.902 137.525 310.009C137.525 309.116 137.866 308.449 138.547 308.008C139.239 307.567 140.31 307.346 141.758 307.346H143.994Z" fill="black"/>
<path d="M152.294 309.04H150.616V312.671H148.38V304.28H150.616V307.911H152.294L154.77 304.28H157.166L154.37 308.395L157.326 312.671H154.77L152.294 309.04Z" fill="black"/>
<path d="M166.757 305.409H163.402V312.671H161.166V305.409H157.811V304.28H166.757V305.409Z" fill="black"/>
<path d="M172.025 311.945C172.366 311.945 172.686 311.881 172.984 311.752C173.282 311.622 173.543 311.423 173.767 311.154C173.99 310.875 174.166 310.514 174.294 310.073C174.432 309.632 174.501 309.1 174.501 308.476C174.501 307.852 174.432 307.319 174.294 306.878C174.166 306.437 173.99 306.082 173.767 305.813C173.543 305.533 173.282 305.329 172.984 305.2C172.686 305.071 172.366 305.006 172.025 305.006C171.685 305.006 171.365 305.071 171.067 305.2C170.769 305.329 170.508 305.533 170.284 305.813C170.061 306.082 169.88 306.437 169.741 306.878C169.613 307.319 169.549 307.852 169.549 308.476C169.549 309.1 169.613 309.632 169.741 310.073C169.88 310.514 170.061 310.875 170.284 311.154C170.508 311.423 170.769 311.622 171.067 311.752C171.365 311.881 171.685 311.945 172.025 311.945ZM172.025 303.957C172.739 303.957 173.394 304.059 173.99 304.264C174.597 304.457 175.114 304.748 175.54 305.135C175.966 305.512 176.296 305.985 176.53 306.555C176.775 307.115 176.898 307.755 176.898 308.476C176.898 309.207 176.775 309.853 176.53 310.412C176.296 310.972 175.966 311.445 175.54 311.832C175.114 312.209 174.597 312.494 173.99 312.688C173.394 312.892 172.739 312.994 172.025 312.994C171.301 312.994 170.641 312.892 170.045 312.688C169.448 312.494 168.937 312.209 168.511 311.832C168.085 311.445 167.75 310.972 167.505 310.412C167.27 309.853 167.153 309.207 167.153 308.476C167.153 307.755 167.27 307.115 167.505 306.555C167.75 305.985 168.085 305.512 168.511 305.135C168.937 304.748 169.448 304.457 170.045 304.264C170.641 304.059 171.301 303.957 172.025 303.957Z" fill="black"/>
<path d="M180.974 305.409V311.542H182.971C183.333 311.542 183.663 311.488 183.962 311.38C184.27 311.262 184.531 311.079 184.744 310.832C184.968 310.584 185.138 310.267 185.255 309.88C185.383 309.492 185.447 309.024 185.447 308.476C185.447 307.927 185.383 307.459 185.255 307.072C185.138 306.684 184.968 306.367 184.744 306.119C184.531 305.872 184.27 305.695 183.962 305.587C183.663 305.469 183.333 305.409 182.971 305.409H180.974ZM182.971 304.28C183.706 304.28 184.372 304.377 184.968 304.57C185.575 304.764 186.091 305.044 186.517 305.409C186.943 305.775 187.268 306.216 187.492 306.733C187.726 307.249 187.843 307.83 187.843 308.476C187.843 309.121 187.726 309.702 187.492 310.218C187.268 310.735 186.943 311.176 186.517 311.542C186.091 311.908 185.575 312.187 184.968 312.381C184.372 312.575 183.706 312.671 182.971 312.671H180.974V315.576H178.738V304.28H182.971Z" fill="black"/>
<path d="M191.893 311.577H192.369C192.687 311.577 192.968 311.442 193.212 311.171C193.456 310.9 193.599 310.44 193.641 309.79L194.198 301.18H203.656V312.552H201.351V302.398H196.344L195.867 309.79C195.793 310.852 195.501 311.621 194.992 312.097C194.494 312.563 193.805 312.796 192.926 312.796C192.65 312.796 192.407 312.769 192.195 312.715C192.078 312.693 191.977 312.666 191.893 312.633V311.577Z" fill="white"/>
<path d="M214.785 304.104V312.552H212.56V306.216H212.401L208.744 312.552H205.883V304.104H208.108V310.44H208.267L211.924 304.104H214.785Z" fill="white"/>
<path d="M224.406 306.135C224.406 307.196 223.743 307.846 222.419 308.084C223.182 308.204 223.754 308.458 224.135 308.848C224.528 309.227 224.724 309.704 224.724 310.278C224.724 310.646 224.639 310.987 224.469 311.301C224.31 311.615 224.051 311.891 223.69 312.13C223.33 312.357 222.869 312.536 222.307 312.666C221.746 312.807 221.067 312.877 220.273 312.877C219.393 312.877 218.593 312.758 217.872 312.52C217.162 312.271 216.585 311.984 216.139 311.659L216.775 310.684C217.22 310.965 217.708 311.215 218.238 311.431C218.768 311.637 219.393 311.74 220.114 311.74C220.951 311.74 221.528 311.604 221.846 311.334C222.175 311.052 222.339 310.646 222.339 310.115C222.339 309.747 222.207 309.438 221.942 309.189C221.677 308.94 221.306 308.815 220.829 308.815H218.047V307.678H220.511C220.988 307.678 221.359 307.554 221.624 307.305C221.889 307.045 222.021 306.709 222.021 306.297C222.021 305.886 221.878 305.555 221.592 305.306C221.316 305.046 220.877 304.916 220.273 304.916C219.594 304.916 218.99 305.025 218.46 305.241C217.941 305.447 217.459 305.691 217.014 305.972L216.378 304.998C216.823 304.673 217.401 304.391 218.111 304.153C218.821 303.904 219.594 303.779 220.432 303.779C221.11 303.779 221.698 303.844 222.196 303.974C222.694 304.104 223.107 304.283 223.436 304.51C223.765 304.727 224.008 304.976 224.167 305.258C224.326 305.539 224.406 305.832 224.406 306.135Z" fill="white"/>
<path d="M235.448 304.104V312.552H233.222V306.216H233.063L229.407 312.552H226.546V304.104H228.771V310.44H228.93L232.586 304.104H235.448Z" fill="white"/>
<path d="M246.42 304.104V312.552H244.194V308.815H239.902V312.552H237.676V304.104H239.902V307.678H244.194V304.104H246.42Z" fill="white"/>
<path d="M255.329 305.241H250.877V312.552H248.652V304.104H255.329V305.241Z" fill="white"/>
<defs>
<filter id="filter0_d_997_2130" x="26.7737" y="97.0615" width="323.489" height="336.732" filterUnits="userSpaceOnUse" color-interpolation-filters="sRGB">
<feFlood flood-opacity="0" result="BackgroundImageFix"/>
<feColorMatrix in="SourceAlpha" type="matrix" values="0 0 0 0 0 0 0 0 0 0 0 0 0 0 0 0 0 0 127 0" result="hardAlpha"/>
<feOffset dy="10"/>
<feGaussianBlur stdDeviation="25"/>
<feComposite in2="hardAlpha" operator="out"/>
<feColorMatrix type="matrix" values="0 0 0 0 0 0 0 0 0 0 0 0 0 0 0 0 0 0 0.1 0"/>
<feBlend mode="normal" in2="BackgroundImageFix" result="effect1_dropShadow_997_2130"/>
<feBlend mode="normal" in="SourceGraphic" in2="effect1_dropShadow_997_2130" result="shape"/>
</filter>
<filter id="filter1_d_997_2130" x="16.7737" y="87.0615" width="343.489" height="356.732" filterUnits="userSpaceOnUse" color-interpolation-filters="sRGB">
<feFlood flood-opacity="0" result="BackgroundImageFix"/>
<feColorMatrix in="SourceAlpha" type="matrix" values="0 0 0 0 0 0 0 0 0 0 0 0 0 0 0 0 0 0 127 0" result="hardAlpha"/>
<feOffset dy="10"/>
<feGaussianBlur stdDeviation="25"/>
<feComposite in2="hardAlpha" operator="out"/>
<feColorMatrix type="matrix" values="0 0 0 0 0 0 0 0 0 0 0 0 0 0 0 0 0 0 0.1 0"/>
<feBlend mode="normal" in2="BackgroundImageFix" result="effect1_dropShadow_997_2130"/>
<feBlend mode="normal" in="SourceGraphic" in2="effect1_dropShadow_997_2130" result="shape"/>
</filter>
<filter id="filter2_d_997_2130" x="118.956" y="156.671" width="138.533" height="169.868" filterUnits="userSpaceOnUse" color-interpolation-filters="sRGB">
<feFlood flood-opacity="0" result="BackgroundImageFix"/>
<feColorMatrix in="SourceAlpha" type="matrix" values="0 0 0 0 0 0 0 0 0 0 0 0 0 0 0 0 0 0 127 0" result="hardAlpha"/>
<feOffset/>
<feGaussianBlur stdDeviation="20"/>
<feComposite in2="hardAlpha" operator="out"/>
<feColorMatrix type="matrix" values="0 0 0 0 1 0 0 0 0 1 0 0 0 0 1 0 0 0 1 0"/>
<feBlend mode="normal" in2="BackgroundImageFix" result="effect1_dropShadow_997_2130"/>
<feBlend mode="normal" in="SourceGraphic" in2="effect1_dropShadow_997_2130" result="shape"/>
</filter>
<linearGradient id="paint0_linear_997_2130" x1="66.1781" y1="406.914" x2="127.13" y2="419.014" gradientUnits="userSpaceOnUse">
<stop stop-color="#F1F1F1"/>
<stop offset="1" stop-color="white"/>
</linearGradient>
<radialGradient id="paint1_radial_997_2130" cx="0" cy="0" r="1" gradientUnits="userSpaceOnUse" gradientTransform="translate(76.8738 425.601) rotate(83.2775) scale(70.0619 125.999)">
<stop stop-color="#E8E8E8"/>
<stop offset="1" stop-color="#EBEBEB" stop-opacity="0"/>
</radialGradient>
<radialGradient id="paint2_radial_997_2130" cx="0" cy="0" r="1" gradientUnits="userSpaceOnUse" gradientTransform="translate(123.159 393.719) rotate(126.207) scale(51.1832 33.8906)">
<stop stop-color="#E3E3E3"/>
<stop offset="1" stop-color="#E5E5E5" stop-opacity="0"/>
</radialGradient>
<radialGradient id="paint3_radial_997_2130" cx="0" cy="0" r="1" gradientUnits="userSpaceOnUse" gradientTransform="translate(52.0169 358.041) rotate(56.8111) scale(58.5474 85.625)">
<stop stop-color="#D9D9D9"/>
<stop offset="1" stop-color="#E1E1E1" stop-opacity="0"/>
</radialGradient>
<linearGradient id="paint4_linear_997_2130" x1="116.376" y1="447.759" x2="41.1712" y2="345.048" gradientUnits="userSpaceOnUse">
<stop stop-color="#EBEBEB"/>
<stop offset="1" stop-color="#F2F2F2"/>
</linearGradient>
<radialGradient id="paint5_radial_997_2130" cx="0" cy="0" r="1" gradientUnits="userSpaceOnUse" gradientTransform="translate(76.8738 425.601) rotate(76.4865) scale(43.7145 78.6175)">
<stop stop-color="#F4F4F4"/>
<stop offset="1" stop-color="white" stop-opacity="0.67"/>
</radialGradient>
<linearGradient id="paint6_linear_997_2130" x1="87.0784" y1="116.532" x2="159.865" y2="130.958" gradientUnits="userSpaceOnUse">
<stop stop-color="#F1F1F1"/>
<stop offset="1" stop-color="white"/>
</linearGradient>
<radialGradient id="paint7_radial_997_2130" cx="0" cy="0" r="1" gradientUnits="userSpaceOnUse" gradientTransform="translate(99.8493 138.881) rotate(83.2882) scale(83.7884 150.45)">
<stop stop-color="#E8E8E8"/>
<stop offset="1" stop-color="#EBEBEB" stop-opacity="0"/>
</radialGradient>
<radialGradient id="paint8_radial_997_2130" cx="0" cy="0" r="1" gradientUnits="userSpaceOnUse" gradientTransform="translate(155.115 100.752) rotate(126.164) scale(61.1781 40.489)">
<stop stop-color="#E3E3E3"/>
<stop offset="1" stop-color="#E5E5E5" stop-opacity="0"/>
</radialGradient>
<radialGradient id="paint9_radial_997_2130" cx="0" cy="0" r="1" gradientUnits="userSpaceOnUse" gradientTransform="translate(70.1695 58.0827) rotate(56.8531) scale(69.986 102.288)">
<stop stop-color="#D9D9D9"/>
<stop offset="1" stop-color="#E1E1E1" stop-opacity="0"/>
</radialGradient>
<linearGradient id="paint10_linear_997_2130" x1="147.016" y1="165.38" x2="57.0317" y2="42.6806" gradientUnits="userSpaceOnUse">
<stop stop-color="#EBEBEB"/>
<stop offset="1" stop-color="#F2F2F2"/>
</linearGradient>
<radialGradient id="paint11_radial_997_2130" cx="0" cy="0" r="1" gradientUnits="userSpaceOnUse" gradientTransform="translate(99.8493 138.881) rotate(76.5073) scale(52.2756 93.8799)">
<stop stop-color="#F4F4F4"/>
<stop offset="1" stop-color="white" stop-opacity="0.67"/>
</radialGradient>
<linearGradient id="paint12_linear_997_2130" x1="194.411" y1="173.601" x2="188.486" y2="313.355" gradientUnits="userSpaceOnUse">
<stop stop-color="#FFB800"/>
<stop offset="1" stop-color="#FFF500"/>
</linearGradient>
<radialGradient id="paint13_radial_997_2130" cx="0" cy="0" r="1" gradientUnits="userSpaceOnUse" gradientTransform="translate(188.308 312.31) rotate(83.1723) scale(115.059 210.1)">
<stop stop-color="#FFE600"/>
<stop offset="1" stop-color="#FFB800" stop-opacity="0"/>
</radialGradient>
<radialGradient id="paint14_radial_997_2130" cx="0" cy="0" r="1" gradientUnits="userSpaceOnUse" gradientTransform="translate(265.503 259.964) rotate(126.636) scale(84.5028 56.2123)">
<stop stop-color="#FFE600"/>
<stop offset="1" stop-color="#FFB800" stop-opacity="0"/>
</radialGradient>
<radialGradient id="paint15_radial_997_2130" cx="0" cy="0" r="1" gradientUnits="userSpaceOnUse" gradientTransform="translate(146.851 201.385) rotate(56.3984) scale(96.5861 142.131)">
<stop stop-color="#FFE600"/>
<stop offset="1" stop-color="#FFB800" stop-opacity="0"/>
</radialGradient>
<linearGradient id="paint16_linear_997_2130" x1="254.19" y1="348.692" x2="131.309" y2="178.214" gradientUnits="userSpaceOnUse">
<stop stop-color="#FFD600"/>
<stop offset="1" stop-color="#FFD600"/>
</linearGradient>
<radialGradient id="paint17_radial_997_2130" cx="0" cy="0" r="1" gradientUnits="userSpaceOnUse" gradientTransform="translate(188.308 312.31) rotate(83.1723) scale(115.059 210.1)">
<stop stop-color="#FFE600"/>
<stop offset="1" stop-color="#FFB800" stop-opacity="0"/>
</radialGradient>
</defs>
</svg>
