<svg width="20" height="20" viewBox="0 0 20 20" fill="none" xmlns="http://www.w3.org/2000/svg">
<path fill-rule="evenodd" clip-rule="evenodd" d="M2.29289 10.5009C2.68342 10.1104 3.31658 10.1104 3.70711 10.5009L10.2917 17.0855L16.8762 10.5009C17.2668 10.1104 17.8999 10.1104 18.2904 10.5009C18.681 10.8914 18.681 11.5246 18.2904 11.9151L10.9988 19.2068C10.6082 19.5973 9.97508 19.5973 9.58456 19.2068L2.29289 11.9151C1.90237 11.5246 1.90237 10.8914 2.29289 10.5009Z" fill="#FFB800"/>
<path fill-rule="evenodd" clip-rule="evenodd" d="M2.29289 0.292893C2.68342 -0.0976311 3.31658 -0.0976311 3.70711 0.292893L10.2917 6.87745L16.8762 0.292893C17.2668 -0.0976311 17.8999 -0.0976311 18.2904 0.292893C18.681 0.683417 18.681 1.31658 18.2904 1.70711L10.9988 8.99877C10.6082 9.3893 9.97508 9.3893 9.58456 8.99877L2.29289 1.70711C1.90237 1.31658 1.90237 0.683417 2.29289 0.292893Z" fill="#FFB800"/>
</svg>
