<svg width="1920" height="877" viewBox="0 0 1920 877" fill="none" xmlns="http://www.w3.org/2000/svg">
<path fill-rule="evenodd" clip-rule="evenodd" d="M-543.082 876.89L-1021.08 -0.110296L-1020.2 -0.588867L-542.203 876.411L-543.082 876.89ZM-536.082 876.89L-1014.08 -0.110296L-1013.2 -0.588867L-535.203 876.411L-536.082 876.89ZM-530.082 876.89L-1008.08 -0.110296L-1007.2 -0.588867L-529.203 876.411L-530.082 876.89ZM-523.082 876.89L-1001.08 -0.110296L-1000.2 -0.588867L-522.203 876.411L-523.082 876.89ZM-516.082 876.89L-994.082 -0.110296L-993.203 -0.588867L-515.203 876.411L-516.082 876.89ZM-510.082 876.89L-988.082 -0.110296L-987.203 -0.588867L-509.203 876.411L-510.082 876.89ZM-503.082 876.89L-981.082 -0.110296L-980.203 -0.588867L-502.203 876.411L-503.082 876.89ZM-496.082 876.89L-974.082 -0.110296L-973.203 -0.588867L-495.203 876.411L-496.082 876.89ZM-490.082 876.89L-968.082 -0.110296L-967.203 -0.588867L-489.203 876.411L-490.082 876.89ZM-483.082 876.89L-961.082 -0.110296L-960.203 -0.588867L-482.203 876.411L-483.082 876.89ZM-476.082 876.89L-954.082 -0.110296L-953.203 -0.588867L-475.203 876.411L-476.082 876.89ZM-470.082 876.89L-948.082 -0.110296L-947.203 -0.588867L-469.203 876.411L-470.082 876.89ZM-463.082 876.89L-941.082 -0.110296L-940.203 -0.588867L-462.203 876.411L-463.082 876.89ZM-456.082 876.89L-934.082 -0.110296L-933.203 -0.588867L-455.203 876.411L-456.082 876.89ZM-449.082 876.89L-927.082 -0.110296L-926.203 -0.588867L-448.203 876.411L-449.082 876.89ZM-443.082 876.89L-921.082 -0.110296L-920.203 -0.588867L-442.203 876.411L-443.082 876.89ZM-436.082 876.89L-914.082 -0.110296L-913.203 -0.588867L-435.203 876.411L-436.082 876.89ZM-429.082 876.89L-907.082 -0.110296L-906.203 -0.588867L-428.203 876.411L-429.082 876.89ZM-423.082 876.89L-901.082 -0.110296L-900.203 -0.588867L-422.203 876.411L-423.082 876.89ZM-416.082 876.89L-894.082 -0.110296L-893.203 -0.588867L-415.203 876.411L-416.082 876.89ZM-409.082 876.89L-887.082 -0.110296L-886.203 -0.588867L-408.203 876.411L-409.082 876.89ZM-403.082 876.89L-881.082 -0.110296L-880.203 -0.588867L-402.203 876.411L-403.082 876.89ZM-396.082 876.89L-874.082 -0.110296L-873.203 -0.588867L-395.203 876.411L-396.082 876.89ZM-389.082 876.89L-867.082 -0.110296L-866.203 -0.588867L-388.203 876.411L-389.082 876.89ZM-383.082 876.89L-861.082 -0.110296L-860.203 -0.588867L-382.203 876.411L-383.082 876.89ZM-376.082 876.89L-854.082 -0.110296L-853.203 -0.588867L-375.203 876.411L-376.082 876.89ZM-370.082 876.89L-848.082 -0.110296L-847.203 -0.588867L-369.203 876.411L-370.082 876.89ZM-363.082 876.89L-841.082 -0.110296L-840.203 -0.588867L-362.203 876.411L-363.082 876.89ZM-357.082 876.89L-835.082 -0.110296L-834.203 -0.588867L-356.203 876.411L-357.082 876.89ZM-350.082 876.89L-828.082 -0.110296L-827.203 -0.588867L-349.203 876.411L-350.082 876.89ZM-343.082 876.89L-821.082 -0.110296L-820.203 -0.588867L-342.203 876.411L-343.082 876.89ZM-337.082 876.89L-815.082 -0.110296L-814.203 -0.588867L-336.203 876.411L-337.082 876.89ZM-330.082 876.89L-808.082 -0.110296L-807.203 -0.588867L-329.203 876.411L-330.082 876.89ZM-323.082 876.89L-801.082 -0.110296L-800.203 -0.588867L-322.203 876.411L-323.082 876.89ZM-317.082 876.89L-795.082 -0.110296L-794.203 -0.588867L-316.203 876.411L-317.082 876.89ZM-310.082 876.89L-788.082 -0.110296L-787.203 -0.588867L-309.203 876.411L-310.082 876.89ZM-303.082 876.89L-781.082 -0.110296L-780.203 -0.588867L-302.203 876.411L-303.082 876.89ZM-297.082 876.89L-775.082 -0.110296L-774.203 -0.588867L-296.203 876.411L-297.082 876.89ZM-290.082 876.89L-768.082 -0.110296L-767.203 -0.588867L-289.203 876.411L-290.082 876.89ZM-283.082 876.89L-761.082 -0.110296L-760.203 -0.588867L-282.203 876.411L-283.082 876.89ZM-276.082 876.89L-754.082 -0.110296L-753.203 -0.588867L-275.203 876.411L-276.082 876.89ZM-270.082 876.89L-748.082 -0.110296L-747.203 -0.588867L-269.203 876.411L-270.082 876.89ZM-263.082 876.89L-741.082 -0.110296L-740.203 -0.588867L-262.203 876.411L-263.082 876.89ZM-256.082 876.89L-734.082 -0.110296L-733.203 -0.588867L-255.203 876.411L-256.082 876.89ZM-250.082 876.89L-728.082 -0.110296L-727.203 -0.588867L-249.203 876.411L-250.082 876.89ZM-243.082 876.89L-721.082 -0.110296L-720.203 -0.588867L-242.203 876.411L-243.082 876.89ZM-236.082 876.89L-714.082 -0.110296L-713.203 -0.588867L-235.203 876.411L-236.082 876.89ZM-230.082 876.89L-708.082 -0.110296L-707.203 -0.588867L-229.203 876.411L-230.082 876.89ZM-223.082 876.89L-701.082 -0.110296L-700.203 -0.588867L-222.203 876.411L-223.082 876.89ZM-216.082 876.89L-694.082 -0.110296L-693.203 -0.588867L-215.203 876.411L-216.082 876.89ZM-210.082 876.89L-688.082 -0.110296L-687.203 -0.588867L-209.203 876.411L-210.082 876.89ZM-203.082 876.89L-681.082 -0.110296L-680.203 -0.588867L-202.203 876.411L-203.082 876.89ZM-196.082 876.89L-674.082 -0.110296L-673.203 -0.588867L-195.203 876.411L-196.082 876.89ZM-190.082 876.89L-668.082 -0.110296L-667.203 -0.588867L-189.203 876.411L-190.082 876.89ZM-183.082 876.89L-661.082 -0.110296L-660.203 -0.588867L-182.203 876.411L-183.082 876.89ZM-176.082 876.89L-654.082 -0.110296L-653.203 -0.588867L-175.203 876.411L-176.082 876.89ZM-170.082 876.89L-648.082 -0.110296L-647.203 -0.588867L-169.203 876.411L-170.082 876.89ZM-163.082 876.89L-641.082 -0.110296L-640.203 -0.588867L-162.203 876.411L-163.082 876.89ZM-156.082 876.89L-634.082 -0.110296L-633.203 -0.588867L-155.203 876.411L-156.082 876.89ZM-150.082 876.89L-628.082 -0.110296L-627.203 -0.588867L-149.203 876.411L-150.082 876.89ZM-143.082 876.89L-621.082 -0.110296L-620.203 -0.588867L-142.203 876.411L-143.082 876.89ZM-136.082 876.89L-614.082 -0.110296L-613.203 -0.588867L-135.203 876.411L-136.082 876.89ZM-130.082 876.89L-608.082 -0.110296L-607.203 -0.588867L-129.203 876.411L-130.082 876.89ZM-123.082 876.89L-601.082 -0.110296L-600.203 -0.588867L-122.203 876.411L-123.082 876.89ZM-116.082 876.89L-594.082 -0.110296L-593.203 -0.588867L-115.203 876.411L-116.082 876.89ZM-109.082 876.89L-587.082 -0.110296L-586.203 -0.588867L-108.203 876.411L-109.082 876.89ZM-103.082 876.89L-581.082 -0.110296L-580.203 -0.588867L-102.203 876.411L-103.082 876.89ZM-96.0815 876.89L-574.082 -0.110296L-573.203 -0.588867L-95.2035 876.411L-96.0815 876.89ZM-89.0815 876.89L-567.082 -0.110296L-566.203 -0.588867L-88.2035 876.411L-89.0815 876.89ZM-83.0815 876.89L-561.082 -0.110296L-560.203 -0.588867L-82.2035 876.411L-83.0815 876.89ZM-76.0815 876.89L-554.082 -0.110296L-553.203 -0.588867L-75.2035 876.411L-76.0815 876.89ZM-69.0815 876.89L-547.082 -0.110296L-546.203 -0.588867L-68.2035 876.411L-69.0815 876.89ZM-63.0815 876.89L-541.082 -0.110296L-540.203 -0.588867L-62.2035 876.411L-63.0815 876.89ZM-56.0815 876.89L-534.082 -0.110296L-533.203 -0.588867L-55.2035 876.411L-56.0815 876.89ZM-49.0815 876.89L-527.082 -0.110296L-526.203 -0.588867L-48.2035 876.411L-49.0815 876.89ZM-43.0815 876.89L-521.082 -0.110296L-520.203 -0.588867L-42.2035 876.411L-43.0815 876.89ZM-36.0815 876.89L-514.082 -0.110296L-513.203 -0.588867L-35.2035 876.411L-36.0815 876.89ZM-30.0815 876.89L-508.082 -0.110296L-507.203 -0.588867L-29.2035 876.411L-30.0815 876.89ZM-23.0815 876.89L-501.082 -0.110296L-500.203 -0.588867L-22.2035 876.411L-23.0815 876.89ZM-17.0815 876.89L-495.082 -0.110296L-494.203 -0.588867L-16.2035 876.411L-17.0815 876.89ZM-10.0815 876.89L-488.082 -0.110296L-487.203 -0.588867L-9.20349 876.411L-10.0815 876.89ZM-3.08154 876.89L-481.082 -0.110296L-480.203 -0.588867L-2.20349 876.411L-3.08154 876.89ZM2.91846 876.89L-475.082 -0.110296L-474.203 -0.588867L3.79639 876.411L2.91846 876.89ZM9.91846 876.89L-468.082 -0.110296L-467.203 -0.588867L10.7964 876.411L9.91846 876.89ZM16.9185 876.89L-461.082 -0.110296L-460.203 -0.588867L17.7964 876.411L16.9185 876.89ZM22.9185 876.89L-455.082 -0.110296L-454.203 -0.588867L23.7964 876.411L22.9185 876.89ZM29.9185 876.89L-448.082 -0.110296L-447.203 -0.588867L30.7964 876.411L29.9185 876.89ZM36.9185 876.89L-441.082 -0.110296L-440.203 -0.588867L37.7964 876.411L36.9185 876.89ZM42.9185 876.89L-435.082 -0.110296L-434.203 -0.588867L43.7964 876.411L42.9185 876.89ZM49.9185 876.89L-428.082 -0.110296L-427.203 -0.588867L50.7964 876.411L49.9185 876.89ZM56.9185 876.89L-421.082 -0.110296L-420.203 -0.588867L57.7964 876.411L56.9185 876.89ZM63.9185 876.89L-414.082 -0.110296L-413.203 -0.588867L64.7964 876.411L63.9185 876.89ZM69.9185 876.89L-408.082 -0.110296L-407.203 -0.588867L70.7964 876.411L69.9185 876.89ZM76.9185 876.89L-401.082 -0.110296L-400.203 -0.588867L77.7964 876.411L76.9185 876.89ZM83.9185 876.89L-394.082 -0.110296L-393.203 -0.588867L84.7964 876.411L83.9185 876.89ZM89.9185 876.89L-388.082 -0.110296L-387.203 -0.588867L90.7964 876.411L89.9185 876.89ZM96.9185 876.89L-381.082 -0.110296L-380.203 -0.588867L97.7964 876.411L96.9185 876.89ZM103.918 876.89L-374.082 -0.110296L-373.203 -0.588867L104.796 876.411L103.918 876.89ZM109.918 876.89L-368.082 -0.110296L-367.203 -0.588867L110.796 876.411L109.918 876.89ZM116.918 876.89L-361.082 -0.110296L-360.203 -0.588867L117.796 876.411L116.918 876.89ZM123.918 876.89L-354.082 -0.110296L-353.203 -0.588867L124.796 876.411L123.918 876.89ZM129.918 876.89L-348.082 -0.110296L-347.203 -0.588867L130.796 876.411L129.918 876.89ZM136.918 876.89L-341.082 -0.110296L-340.203 -0.588867L137.796 876.411L136.918 876.89ZM144.918 876.89L-333.082 -0.110296L-332.203 -0.588867L145.796 876.411L144.918 876.89ZM151.918 876.89L-326.082 -0.110296L-325.203 -0.588867L152.796 876.411L151.918 876.89ZM157.918 876.89L-320.082 -0.110296L-319.203 -0.588867L158.796 876.411L157.918 876.89ZM164.918 876.89L-313.082 -0.110296L-312.203 -0.588867L165.796 876.411L164.918 876.89ZM171.918 876.89L-306.082 -0.110296L-305.203 -0.588867L172.796 876.411L171.918 876.89ZM177.918 876.89L-300.082 -0.110296L-299.203 -0.588867L178.796 876.411L177.918 876.89ZM184.918 876.89L-293.082 -0.110296L-292.203 -0.588867L185.796 876.411L184.918 876.89ZM191.918 876.89L-286.082 -0.110296L-285.203 -0.588867L192.796 876.411L191.918 876.89ZM197.918 876.89L-280.082 -0.110296L-279.203 -0.588867L198.796 876.411L197.918 876.89ZM204.918 876.89L-273.082 -0.110296L-272.203 -0.588867L205.796 876.411L204.918 876.89ZM211.918 876.89L-266.082 -0.110296L-265.203 -0.588867L212.796 876.411L211.918 876.89ZM217.918 876.89L-260.082 -0.110296L-259.203 -0.588867L218.796 876.411L217.918 876.89ZM224.918 876.89L-253.082 -0.110296L-252.203 -0.588867L225.796 876.411L224.918 876.89ZM231.918 876.89L-246.082 -0.110296L-245.203 -0.588867L232.796 876.411L231.918 876.89ZM238.918 876.89L-239.082 -0.110296L-238.203 -0.588867L239.796 876.411L238.918 876.89ZM244.918 876.89L-233.082 -0.110296L-232.203 -0.588867L245.796 876.411L244.918 876.89ZM251.918 876.89L-226.082 -0.110296L-225.203 -0.588867L252.796 876.411L251.918 876.89ZM258.918 876.89L-219.082 -0.110296L-218.203 -0.588867L259.796 876.411L258.918 876.89ZM264.918 876.89L-213.082 -0.110296L-212.203 -0.588867L265.796 876.411L264.918 876.89ZM271.918 876.89L-206.082 -0.110296L-205.203 -0.588867L272.796 876.411L271.918 876.89ZM278.918 876.89L-199.082 -0.110296L-198.203 -0.588867L279.796 876.411L278.918 876.89ZM284.918 876.89L-193.082 -0.110296L-192.203 -0.588867L285.796 876.411L284.918 876.89ZM291.918 876.89L-186.082 -0.110296L-185.203 -0.588867L292.796 876.411L291.918 876.89ZM298.918 876.89L-179.082 -0.110296L-178.203 -0.588867L299.796 876.411L298.918 876.89ZM304.918 876.89L-173.082 -0.110296L-172.203 -0.588867L305.796 876.411L304.918 876.89ZM311.918 876.89L-166.082 -0.110296L-165.203 -0.588867L312.796 876.411L311.918 876.89ZM317.918 876.89L-160.082 -0.110296L-159.203 -0.588867L318.796 876.411L317.918 876.89ZM324.918 876.89L-153.082 -0.110296L-152.203 -0.588867L325.796 876.411L324.918 876.89ZM330.918 876.89L-147.082 -0.110296L-146.203 -0.588867L331.796 876.411L330.918 876.89ZM337.918 876.89L-140.082 -0.110296L-139.203 -0.588867L338.796 876.411L337.918 876.89ZM344.918 876.89L-133.082 -0.110296L-132.203 -0.588867L345.796 876.411L344.918 876.89ZM350.918 876.89L-127.082 -0.110296L-126.203 -0.588867L351.796 876.411L350.918 876.89ZM357.918 876.89L-120.082 -0.110296L-119.203 -0.588867L358.796 876.411L357.918 876.89ZM364.918 876.89L-113.082 -0.110296L-112.203 -0.588867L365.796 876.411L364.918 876.89ZM370.918 876.89L-107.082 -0.110296L-106.203 -0.588867L371.796 876.411L370.918 876.89ZM377.918 876.89L-100.082 -0.110296L-99.2035 -0.588867L378.796 876.411L377.918 876.89ZM384.918 876.89L-93.0815 -0.110296L-92.2035 -0.588867L385.796 876.411L384.918 876.89ZM390.918 876.89L-87.0815 -0.110296L-86.2035 -0.588867L391.796 876.411L390.918 876.89ZM397.918 876.89L-80.0815 -0.110296L-79.2035 -0.588867L398.796 876.411L397.918 876.89ZM404.918 876.89L-73.0815 -0.110296L-72.2035 -0.588867L405.796 876.411L404.918 876.89ZM411.918 876.89L-66.0815 -0.110296L-65.2035 -0.588867L412.796 876.411L411.918 876.89ZM417.918 876.89L-60.0815 -0.110296L-59.2035 -0.588867L418.796 876.411L417.918 876.89ZM424.918 876.89L-53.0815 -0.110296L-52.2035 -0.588867L425.796 876.411L424.918 876.89ZM431.918 876.89L-46.0815 -0.110296L-45.2035 -0.588867L432.796 876.411L431.918 876.89ZM437.918 876.89L-40.0815 -0.110296L-39.2035 -0.588867L438.796 876.411L437.918 876.89ZM444.918 876.89L-33.0815 -0.110296L-32.2035 -0.588867L445.796 876.411L444.918 876.89ZM451.918 876.89L-26.0815 -0.110296L-25.2035 -0.588867L452.796 876.411L451.918 876.89ZM457.918 876.89L-20.0815 -0.110296L-19.2035 -0.588867L458.796 876.411L457.918 876.89ZM464.918 876.89L-13.0815 -0.110296L-12.2035 -0.588867L465.796 876.411L464.918 876.89ZM471.918 876.89L-6.08154 -0.110296L-5.20349 -0.588867L472.796 876.411L471.918 876.89ZM477.918 876.89L-0.081543 -0.110296L0.796509 -0.588867L478.796 876.411L477.918 876.89ZM484.918 876.89L6.91846 -0.110296L7.79639 -0.588867L485.796 876.411L484.918 876.89ZM491.918 876.89L13.9185 -0.110296L14.7964 -0.588867L492.796 876.411L491.918 876.89ZM497.918 876.89L19.9185 -0.110296L20.7964 -0.588867L498.796 876.411L497.918 876.89ZM504.918 876.89L26.9185 -0.110296L27.7964 -0.588867L505.796 876.411L504.918 876.89ZM511.918 876.89L33.9185 -0.110296L34.7964 -0.588867L512.796 876.411L511.918 876.89ZM517.918 876.89L39.9185 -0.110296L40.7964 -0.588867L518.796 876.411L517.918 876.89ZM524.918 876.89L46.9185 -0.110296L47.7964 -0.588867L525.796 876.411L524.918 876.89ZM531.918 876.89L53.9185 -0.110296L54.7964 -0.588867L532.796 876.411L531.918 876.89ZM537.918 876.89L59.9185 -0.110296L60.7964 -0.588867L538.796 876.411L537.918 876.89ZM544.918 876.89L66.9185 -0.110296L67.7964 -0.588867L545.796 876.411L544.918 876.89ZM551.918 876.89L73.9185 -0.110296L74.7964 -0.588867L552.796 876.411L551.918 876.89ZM557.918 876.89L79.9185 -0.110296L80.7964 -0.588867L558.796 876.411L557.918 876.89ZM564.918 876.89L86.9185 -0.110296L87.7964 -0.588867L565.796 876.411L564.918 876.89ZM571.918 876.89L93.9185 -0.110296L94.7964 -0.588867L572.796 876.411L571.918 876.89ZM578.918 876.89L100.918 -0.110296L101.796 -0.588867L579.796 876.411L578.918 876.89ZM584.918 876.89L106.918 -0.110296L107.796 -0.588867L585.796 876.411L584.918 876.89ZM591.918 876.89L113.918 -0.110296L114.796 -0.588867L592.796 876.411L591.918 876.89ZM598.918 876.89L120.918 -0.110296L121.796 -0.588867L599.796 876.411L598.918 876.89ZM604.918 876.89L126.918 -0.110296L127.796 -0.588867L605.796 876.411L604.918 876.89ZM611.918 876.89L133.918 -0.110296L134.796 -0.588867L612.796 876.411L611.918 876.89ZM618.918 876.89L140.918 -0.110296L141.796 -0.588867L619.796 876.411L618.918 876.89ZM624.918 876.89L146.918 -0.110296L147.796 -0.588867L625.796 876.411L624.918 876.89ZM631.918 876.89L153.918 -0.110296L154.796 -0.588867L632.796 876.411L631.918 876.89ZM638.918 876.89L160.918 -0.110296L161.796 -0.588867L639.796 876.411L638.918 876.89ZM644.918 876.89L166.918 -0.110296L167.796 -0.588867L645.796 876.411L644.918 876.89ZM651.918 876.89L173.918 -0.110296L174.796 -0.588867L652.796 876.411L651.918 876.89ZM657.918 876.89L179.918 -0.110296L180.796 -0.588867L658.796 876.411L657.918 876.89ZM664.918 876.89L186.918 -0.110296L187.796 -0.588867L665.796 876.411L664.918 876.89ZM670.918 876.89L192.918 -0.110296L193.796 -0.588867L671.796 876.411L670.918 876.89ZM677.918 876.89L199.918 -0.110296L200.796 -0.588867L678.796 876.411L677.918 876.89ZM684.918 876.89L206.918 -0.110296L207.796 -0.588867L685.796 876.411L684.918 876.89ZM690.918 876.89L212.918 -0.110296L213.796 -0.588867L691.796 876.411L690.918 876.89ZM697.918 876.89L219.918 -0.110296L220.796 -0.588867L698.796 876.411L697.918 876.89ZM704.918 876.89L226.918 -0.110296L227.796 -0.588867L705.796 876.411L704.918 876.89ZM710.918 876.89L232.918 -0.110296L233.796 -0.588867L711.796 876.411L710.918 876.89ZM717.918 876.89L239.918 -0.110296L240.796 -0.588867L718.796 876.411L717.918 876.89ZM724.918 876.89L246.918 -0.110296L247.796 -0.588867L725.796 876.411L724.918 876.89ZM730.918 876.89L252.918 -0.110296L253.796 -0.588867L731.796 876.411L730.918 876.89ZM737.918 876.89L259.918 -0.110296L260.796 -0.588867L738.796 876.411L737.918 876.89ZM744.918 876.89L266.918 -0.110296L267.796 -0.588867L745.796 876.411L744.918 876.89ZM751.918 876.89L273.918 -0.110296L274.796 -0.588867L752.796 876.411L751.918 876.89ZM757.918 876.89L279.918 -0.110296L280.796 -0.588867L758.796 876.411L757.918 876.89ZM764.918 876.89L286.918 -0.110296L287.796 -0.588867L765.796 876.411L764.918 876.89ZM771.918 876.89L293.918 -0.110296L294.796 -0.588867L772.796 876.411L771.918 876.89ZM777.918 876.89L299.918 -0.110296L300.796 -0.588867L778.796 876.411L777.918 876.89ZM784.918 876.89L306.918 -0.110296L307.796 -0.588867L785.796 876.411L784.918 876.89ZM791.918 876.89L313.918 -0.110296L314.796 -0.588867L792.796 876.411L791.918 876.89ZM797.918 876.89L319.918 -0.110296L320.796 -0.588867L798.796 876.411L797.918 876.89ZM804.918 876.89L326.918 -0.110296L327.796 -0.588867L805.796 876.411L804.918 876.89ZM811.918 876.89L333.918 -0.110296L334.796 -0.588867L812.796 876.411L811.918 876.89ZM817.918 876.89L339.918 -0.110296L340.796 -0.588867L818.796 876.411L817.918 876.89ZM824.918 876.89L346.918 -0.110296L347.796 -0.588867L825.796 876.411L824.918 876.89ZM830.918 876.89L352.918 -0.110296L353.796 -0.588867L831.796 876.411L830.918 876.89ZM837.918 876.89L359.918 -0.110296L360.796 -0.588867L838.796 876.411L837.918 876.89ZM843.918 876.89L365.918 -0.110296L366.796 -0.588867L844.796 876.411L843.918 876.89ZM850.918 876.89L372.918 -0.110296L373.796 -0.588867L851.796 876.411L850.918 876.89ZM857.918 876.89L379.918 -0.110296L380.796 -0.588867L858.796 876.411L857.918 876.89ZM863.918 876.89L385.918 -0.110296L386.796 -0.588867L864.796 876.411L863.918 876.89ZM870.918 876.89L392.918 -0.110296L393.796 -0.588867L871.796 876.411L870.918 876.89ZM877.918 876.89L399.918 -0.110296L400.796 -0.588867L878.796 876.411L877.918 876.89ZM883.918 876.89L405.918 -0.110296L406.796 -0.588867L884.796 876.411L883.918 876.89ZM890.918 876.89L412.918 -0.110296L413.796 -0.588867L891.796 876.411L890.918 876.89ZM897.918 876.89L419.918 -0.110296L420.796 -0.588867L898.796 876.411L897.918 876.89ZM903.918 876.89L425.918 -0.110296L426.796 -0.588867L904.796 876.411L903.918 876.89ZM910.918 876.89L432.918 -0.110296L433.796 -0.588867L911.796 876.411L910.918 876.89ZM917.918 876.89L439.918 -0.110296L440.796 -0.588867L918.796 876.411L917.918 876.89ZM924.918 876.89L446.918 -0.110296L447.796 -0.588867L925.796 876.411L924.918 876.89ZM930.918 876.89L452.918 -0.110296L453.796 -0.588867L931.796 876.411L930.918 876.89ZM937.918 876.89L459.918 -0.110296L460.796 -0.588867L938.796 876.411L937.918 876.89ZM944.918 876.89L466.918 -0.110296L467.796 -0.588867L945.796 876.411L944.918 876.89ZM950.918 876.89L472.918 -0.110296L473.796 -0.588867L951.796 876.411L950.918 876.89ZM957.918 876.89L479.918 -0.110296L480.796 -0.588867L958.796 876.411L957.918 876.89ZM964.918 876.89L486.918 -0.110296L487.796 -0.588867L965.796 876.411L964.918 876.89ZM970.918 876.89L492.918 -0.110296L493.796 -0.588867L971.796 876.411L970.918 876.89ZM977.918 876.89L499.918 -0.110296L500.796 -0.588867L978.796 876.411L977.918 876.89ZM984.918 876.89L506.918 -0.110296L507.796 -0.588867L985.796 876.411L984.918 876.89ZM990.918 876.89L512.918 -0.110296L513.796 -0.588867L991.796 876.411L990.918 876.89ZM997.918 876.89L519.918 -0.110296L520.796 -0.588867L998.796 876.411L997.918 876.89ZM1003.92 876.89L525.918 -0.110296L526.796 -0.588867L1004.8 876.411L1003.92 876.89ZM1010.92 876.89L532.918 -0.110296L533.796 -0.588867L1011.8 876.411L1010.92 876.89ZM1016.92 876.89L538.918 -0.110296L539.796 -0.588867L1017.8 876.411L1016.92 876.89ZM1023.92 876.89L545.918 -0.110296L546.796 -0.588867L1024.8 876.411L1023.92 876.89ZM1030.92 876.89L552.918 -0.110296L553.796 -0.588867L1031.8 876.411L1030.92 876.89ZM1036.92 876.89L558.918 -0.110296L559.796 -0.588867L1037.8 876.411L1036.92 876.89ZM1043.92 876.89L565.918 -0.110296L566.796 -0.588867L1044.8 876.411L1043.92 876.89ZM1050.92 876.89L572.918 -0.110296L573.796 -0.588867L1051.8 876.411L1050.92 876.89ZM1056.92 876.89L578.918 -0.110296L579.796 -0.588867L1057.8 876.411L1056.92 876.89ZM1063.92 876.89L585.918 -0.110296L586.796 -0.588867L1064.8 876.411L1063.92 876.89ZM1070.92 876.89L592.918 -0.110296L593.796 -0.588867L1071.8 876.411L1070.92 876.89ZM1076.92 876.89L598.918 -0.110296L599.796 -0.588867L1077.8 876.411L1076.92 876.89ZM1083.92 876.89L605.918 -0.110296L606.796 -0.588867L1084.8 876.411L1083.92 876.89ZM1090.92 876.89L612.918 -0.110296L613.796 -0.588867L1091.8 876.411L1090.92 876.89ZM1097.92 876.89L619.918 -0.110296L620.796 -0.588867L1098.8 876.411L1097.92 876.89ZM1103.92 876.89L625.918 -0.110296L626.796 -0.588867L1104.8 876.411L1103.92 876.89ZM1110.92 876.89L632.918 -0.110296L633.796 -0.588867L1111.8 876.411L1110.92 876.89ZM1117.92 876.89L639.918 -0.110296L640.796 -0.588867L1118.8 876.411L1117.92 876.89ZM1123.92 876.89L645.918 -0.110296L646.796 -0.588867L1124.8 876.411L1123.92 876.89ZM1130.92 876.89L652.918 -0.110296L653.796 -0.588867L1131.8 876.411L1130.92 876.89ZM1137.92 876.89L659.918 -0.110296L660.796 -0.588867L1138.8 876.411L1137.92 876.89ZM1143.92 876.89L665.918 -0.110296L666.796 -0.588867L1144.8 876.411L1143.92 876.89ZM1150.92 876.89L672.918 -0.110296L673.796 -0.588867L1151.8 876.411L1150.92 876.89ZM1157.92 876.89L679.918 -0.110296L680.796 -0.588867L1158.8 876.411L1157.92 876.89ZM1163.92 876.89L685.918 -0.110296L686.796 -0.588867L1164.8 876.411L1163.92 876.89ZM1170.92 876.89L692.918 -0.110296L693.796 -0.588867L1171.8 876.411L1170.92 876.89ZM1177.92 876.89L699.918 -0.110296L700.796 -0.588867L1178.8 876.411L1177.92 876.89ZM1183.92 876.89L705.918 -0.110296L706.796 -0.588867L1184.8 876.411L1183.92 876.89ZM1190.92 876.89L712.918 -0.110296L713.796 -0.588867L1191.8 876.411L1190.92 876.89ZM1197.92 876.89L719.918 -0.110296L720.796 -0.588867L1198.8 876.411L1197.92 876.89ZM1203.92 876.89L725.918 -0.110296L726.796 -0.588867L1204.8 876.411L1203.92 876.89ZM1210.92 876.89L732.918 -0.110296L733.796 -0.588867L1211.8 876.411L1210.92 876.89ZM1217.92 876.89L739.918 -0.110296L740.796 -0.588867L1218.8 876.411L1217.92 876.89ZM1223.92 876.89L745.918 -0.110296L746.796 -0.588867L1224.8 876.411L1223.92 876.89ZM1230.92 876.89L752.918 -0.110296L753.796 -0.588867L1231.8 876.411L1230.92 876.89ZM1237.92 876.89L759.918 -0.110296L760.796 -0.588867L1238.8 876.411L1237.92 876.89ZM1243.92 876.89L765.918 -0.110296L766.796 -0.588867L1244.8 876.411L1243.92 876.89ZM1250.92 876.89L772.918 -0.110296L773.796 -0.588867L1251.8 876.411L1250.92 876.89ZM1257.92 876.89L779.918 -0.110296L780.796 -0.588867L1258.8 876.411L1257.92 876.89ZM1264.92 876.89L786.918 -0.110296L787.796 -0.588867L1265.8 876.411L1264.92 876.89ZM1270.92 876.89L792.918 -0.110296L793.796 -0.588867L1271.8 876.411L1270.92 876.89ZM1277.92 876.89L799.918 -0.110296L800.796 -0.588867L1278.8 876.411L1277.92 876.89ZM1284.92 876.89L806.918 -0.110296L807.796 -0.588867L1285.8 876.411L1284.92 876.89ZM1290.92 876.89L812.918 -0.110296L813.796 -0.588867L1291.8 876.411L1290.92 876.89ZM1297.92 876.89L819.918 -0.110296L820.796 -0.588867L1298.8 876.411L1297.92 876.89ZM1304.92 876.89L826.918 -0.110296L827.796 -0.588867L1305.8 876.411L1304.92 876.89ZM1310.92 876.89L832.918 -0.110296L833.796 -0.588867L1311.8 876.411L1310.92 876.89ZM1317.92 876.89L839.918 -0.110296L840.796 -0.588867L1318.8 876.411L1317.92 876.89ZM1324.92 876.89L846.918 -0.110296L847.796 -0.588867L1325.8 876.411L1324.92 876.89ZM1330.92 876.89L852.918 -0.110296L853.796 -0.588867L1331.8 876.411L1330.92 876.89ZM1337.92 876.89L859.918 -0.110296L860.796 -0.588867L1338.8 876.411L1337.92 876.89ZM1343.92 876.89L865.918 -0.110296L866.796 -0.588867L1344.8 876.411L1343.92 876.89ZM1350.92 876.89L872.918 -0.110296L873.796 -0.588867L1351.8 876.411L1350.92 876.89ZM1356.92 876.89L878.918 -0.110296L879.796 -0.588867L1357.8 876.411L1356.92 876.89ZM1363.92 876.89L885.918 -0.110296L886.796 -0.588867L1364.8 876.411L1363.92 876.89ZM1370.92 876.89L892.918 -0.110296L893.796 -0.588867L1371.8 876.411L1370.92 876.89ZM1376.92 876.89L898.918 -0.110296L899.796 -0.588867L1377.8 876.411L1376.92 876.89ZM1383.92 876.89L905.918 -0.110296L906.796 -0.588867L1384.8 876.411L1383.92 876.89ZM1390.92 876.89L912.918 -0.110296L913.796 -0.588867L1391.8 876.411L1390.92 876.89ZM1396.92 876.89L918.918 -0.110296L919.796 -0.588867L1397.8 876.411L1396.92 876.89ZM1403.92 876.89L925.918 -0.110296L926.796 -0.588867L1404.8 876.411L1403.92 876.89ZM1410.92 876.89L932.918 -0.110296L933.796 -0.588867L1411.8 876.411L1410.92 876.89ZM1416.92 876.89L938.918 -0.110296L939.796 -0.588867L1417.8 876.411L1416.92 876.89ZM1423.92 876.89L945.918 -0.110296L946.796 -0.588867L1424.8 876.411L1423.92 876.89ZM1430.92 876.89L952.918 -0.110296L953.796 -0.588867L1431.8 876.411L1430.92 876.89ZM1437.92 876.89L959.918 -0.110296L960.796 -0.588867L1438.8 876.411L1437.92 876.89ZM1443.92 876.89L965.918 -0.110296L966.796 -0.588867L1444.8 876.411L1443.92 876.89ZM1450.92 876.89L972.918 -0.110296L973.796 -0.588867L1451.8 876.411L1450.92 876.89ZM1457.92 876.89L979.918 -0.110296L980.796 -0.588867L1458.8 876.411L1457.92 876.89ZM1463.92 876.89L985.918 -0.110296L986.796 -0.588867L1464.8 876.411L1463.92 876.89ZM1470.92 876.89L992.918 -0.110296L993.796 -0.588867L1471.8 876.411L1470.92 876.89ZM1477.92 876.89L999.918 -0.110296L1000.8 -0.588867L1478.8 876.411L1477.92 876.89ZM1483.92 876.89L1005.92 -0.110296L1006.8 -0.588867L1484.8 876.411L1483.92 876.89ZM1490.92 876.89L1012.92 -0.110296L1013.8 -0.588867L1491.8 876.411L1490.92 876.89ZM1497.92 876.89L1019.92 -0.110296L1020.8 -0.588867L1498.8 876.411L1497.92 876.89ZM1503.92 876.89L1025.92 -0.110296L1026.8 -0.588867L1504.8 876.411L1503.92 876.89ZM1510.92 876.89L1032.92 -0.110296L1033.8 -0.588867L1511.8 876.411L1510.92 876.89ZM1518.92 876.89L1040.92 -0.110296L1041.8 -0.588867L1519.8 876.411L1518.92 876.89ZM1525.92 876.89L1047.92 -0.110296L1048.8 -0.588867L1526.8 876.411L1525.92 876.89ZM1531.92 876.89L1053.92 -0.110296L1054.8 -0.588867L1532.8 876.411L1531.92 876.89ZM1538.92 876.89L1060.92 -0.110296L1061.8 -0.588867L1539.8 876.411L1538.92 876.89ZM1545.92 876.89L1067.92 -0.110296L1068.8 -0.588867L1546.8 876.411L1545.92 876.89ZM1551.92 876.89L1073.92 -0.110296L1074.8 -0.588867L1552.8 876.411L1551.92 876.89ZM1558.92 876.89L1080.92 -0.110296L1081.8 -0.588867L1559.8 876.411L1558.92 876.89ZM1565.92 876.89L1087.92 -0.110296L1088.8 -0.588867L1566.8 876.411L1565.92 876.89ZM1571.92 876.89L1093.92 -0.110296L1094.8 -0.588867L1572.8 876.411L1571.92 876.89ZM1578.92 876.89L1100.92 -0.110296L1101.8 -0.588867L1579.8 876.411L1578.92 876.89ZM1585.92 876.89L1107.92 -0.110296L1108.8 -0.588867L1586.8 876.411L1585.92 876.89ZM1591.92 876.89L1113.92 -0.110296L1114.8 -0.588867L1592.8 876.411L1591.92 876.89ZM1598.92 876.89L1120.92 -0.110296L1121.8 -0.588867L1599.8 876.411L1598.92 876.89ZM1605.92 876.89L1127.92 -0.110296L1128.8 -0.588867L1606.8 876.411L1605.92 876.89ZM1612.92 876.89L1134.92 -0.110296L1135.8 -0.588867L1613.8 876.411L1612.92 876.89ZM1618.92 876.89L1140.92 -0.110296L1141.8 -0.588867L1619.8 876.411L1618.92 876.89ZM1625.92 876.89L1147.92 -0.110296L1148.8 -0.588867L1626.8 876.411L1625.92 876.89ZM1632.92 876.89L1154.92 -0.110296L1155.8 -0.588867L1633.8 876.411L1632.92 876.89ZM1638.92 876.89L1160.92 -0.110296L1161.8 -0.588867L1639.8 876.411L1638.92 876.89ZM1645.92 876.89L1167.92 -0.110296L1168.8 -0.588867L1646.8 876.411L1645.92 876.89ZM1652.92 876.89L1174.92 -0.110296L1175.8 -0.588867L1653.8 876.411L1652.92 876.89ZM1658.92 876.89L1180.92 -0.110296L1181.8 -0.588867L1659.8 876.411L1658.92 876.89ZM1665.92 876.89L1187.92 -0.110296L1188.8 -0.588867L1666.8 876.411L1665.92 876.89ZM1672.92 876.89L1194.92 -0.110296L1195.8 -0.588867L1673.8 876.411L1672.92 876.89ZM1678.92 876.89L1200.92 -0.110296L1201.8 -0.588867L1679.8 876.411L1678.92 876.89ZM1685.92 876.89L1207.92 -0.110296L1208.8 -0.588867L1686.8 876.411L1685.92 876.89ZM1691.92 876.89L1213.92 -0.110296L1214.8 -0.588867L1692.8 876.411L1691.92 876.89ZM1698.92 876.89L1220.92 -0.110296L1221.8 -0.588867L1699.8 876.411L1698.92 876.89ZM1704.92 876.89L1226.92 -0.110296L1227.8 -0.588867L1705.8 876.411L1704.92 876.89ZM1711.92 876.89L1233.92 -0.110296L1234.8 -0.588867L1712.8 876.411L1711.92 876.89ZM1718.92 876.89L1240.92 -0.110296L1241.8 -0.588867L1719.8 876.411L1718.92 876.89ZM1724.92 876.89L1246.92 -0.110296L1247.8 -0.588867L1725.8 876.411L1724.92 876.89ZM1731.92 876.89L1253.92 -0.110296L1254.8 -0.588867L1732.8 876.411L1731.92 876.89ZM1738.92 876.89L1260.92 -0.110296L1261.8 -0.588867L1739.8 876.411L1738.92 876.89ZM1744.92 876.89L1266.92 -0.110296L1267.8 -0.588867L1745.8 876.411L1744.92 876.89ZM1751.92 876.89L1273.92 -0.110296L1274.8 -0.588867L1752.8 876.411L1751.92 876.89ZM1758.92 876.89L1280.92 -0.110296L1281.8 -0.588867L1759.8 876.411L1758.92 876.89ZM1764.92 876.89L1286.92 -0.110296L1287.8 -0.588867L1765.8 876.411L1764.92 876.89ZM1771.92 876.89L1293.92 -0.110296L1294.8 -0.588867L1772.8 876.411L1771.92 876.89ZM1778.92 876.89L1300.92 -0.110296L1301.8 -0.588867L1779.8 876.411L1778.92 876.89ZM1785.92 876.89L1307.92 -0.110296L1308.8 -0.588867L1786.8 876.411L1785.92 876.89ZM1791.92 876.89L1313.92 -0.110296L1314.8 -0.588867L1792.8 876.411L1791.92 876.89ZM1798.92 876.89L1320.92 -0.110296L1321.8 -0.588867L1799.8 876.411L1798.92 876.89ZM1805.92 876.89L1327.92 -0.110296L1328.8 -0.588867L1806.8 876.411L1805.92 876.89ZM1811.92 876.89L1333.92 -0.110296L1334.8 -0.588867L1812.8 876.411L1811.92 876.89ZM1818.92 876.89L1340.92 -0.110296L1341.8 -0.588867L1819.8 876.411L1818.92 876.89ZM1825.92 876.89L1347.92 -0.110296L1348.8 -0.588867L1826.8 876.411L1825.92 876.89ZM1831.92 876.89L1353.92 -0.110296L1354.8 -0.588867L1832.8 876.411L1831.92 876.89ZM1838.92 876.89L1360.92 -0.110296L1361.8 -0.588867L1839.8 876.411L1838.92 876.89ZM1845.92 876.89L1367.92 -0.110296L1368.8 -0.588867L1846.8 876.411L1845.92 876.89ZM1851.92 876.89L1373.92 -0.110296L1374.8 -0.588867L1852.8 876.411L1851.92 876.89ZM1858.92 876.89L1380.92 -0.110296L1381.8 -0.588867L1859.8 876.411L1858.92 876.89ZM1865.92 876.89L1387.92 -0.110296L1388.8 -0.588867L1866.8 876.411L1865.92 876.89ZM1871.92 876.89L1393.92 -0.110296L1394.8 -0.588867L1872.8 876.411L1871.92 876.89ZM1878.92 876.89L1400.92 -0.110296L1401.8 -0.588867L1879.8 876.411L1878.92 876.89ZM1885.92 876.89L1407.92 -0.110296L1408.8 -0.588867L1886.8 876.411L1885.92 876.89ZM1891.92 876.89L1413.92 -0.110296L1414.8 -0.588867L1892.8 876.411L1891.92 876.89ZM1898.92 876.89L1420.92 -0.110296L1421.8 -0.588867L1899.8 876.411L1898.92 876.89ZM1905.92 876.89L1427.92 -0.110296L1428.8 -0.588867L1906.8 876.411L1905.92 876.89ZM1911.92 876.89L1433.92 -0.110296L1434.8 -0.588867L1912.8 876.411L1911.92 876.89ZM1918.92 876.89L1440.92 -0.110296L1441.8 -0.588867L1919.8 876.411L1918.92 876.89ZM1925.92 876.89L1447.92 -0.110296L1448.8 -0.588867L1926.8 876.411L1925.92 876.89ZM1931.92 876.89L1453.92 -0.110296L1454.8 -0.588867L1932.8 876.411L1931.92 876.89ZM1938.92 876.89L1460.92 -0.110296L1461.8 -0.588867L1939.8 876.411L1938.92 876.89ZM1945.92 876.89L1467.92 -0.110296L1468.8 -0.588867L1946.8 876.411L1945.92 876.89ZM1952.92 876.89L1474.92 -0.110296L1475.8 -0.588867L1953.8 876.411L1952.92 876.89ZM1958.92 876.89L1480.92 -0.110296L1481.8 -0.588867L1959.8 876.411L1958.92 876.89ZM1965.92 876.89L1487.92 -0.110296L1488.8 -0.588867L1966.8 876.411L1965.92 876.89ZM1972.92 876.89L1494.92 -0.110296L1495.8 -0.588867L1973.8 876.411L1972.92 876.89ZM1978.92 876.89L1500.92 -0.110296L1501.8 -0.588867L1979.8 876.411L1978.92 876.89ZM1985.92 876.89L1507.92 -0.110296L1508.8 -0.588867L1986.8 876.411L1985.92 876.89ZM1992.92 876.89L1514.92 -0.110296L1515.8 -0.588867L1993.8 876.411L1992.92 876.89ZM1998.92 876.89L1520.92 -0.110296L1521.8 -0.588867L1999.8 876.411L1998.92 876.89ZM2005.92 876.89L1527.92 -0.110296L1528.8 -0.588867L2006.8 876.411L2005.92 876.89ZM2012.92 876.89L1534.92 -0.110296L1535.8 -0.588867L2013.8 876.411L2012.92 876.89ZM2018.92 876.89L1540.92 -0.110296L1541.8 -0.588867L2019.8 876.411L2018.92 876.89ZM2025.92 876.89L1547.92 -0.110296L1548.8 -0.588867L2026.8 876.411L2025.92 876.89ZM2031.92 876.89L1553.92 -0.110296L1554.8 -0.588867L2032.8 876.411L2031.92 876.89ZM2038.92 876.89L1560.92 -0.110296L1561.8 -0.588867L2039.8 876.411L2038.92 876.89ZM2044.92 876.89L1566.92 -0.110296L1567.8 -0.588867L2045.8 876.411L2044.92 876.89ZM2051.92 876.89L1573.92 -0.110296L1574.8 -0.588867L2052.8 876.411L2051.92 876.89ZM2058.92 876.89L1580.92 -0.110296L1581.8 -0.588867L2059.8 876.411L2058.92 876.89ZM2064.92 876.89L1586.92 -0.110296L1587.8 -0.588867L2065.8 876.411L2064.92 876.89ZM2071.92 876.89L1593.92 -0.110296L1594.8 -0.588867L2072.8 876.411L2071.92 876.89ZM2078.92 876.89L1600.92 -0.110296L1601.8 -0.588867L2079.8 876.411L2078.92 876.89ZM2084.92 876.89L1606.92 -0.110296L1607.8 -0.588867L2085.8 876.411L2084.92 876.89ZM2091.92 876.89L1613.92 -0.110296L1614.8 -0.588867L2092.8 876.411L2091.92 876.89ZM2098.92 876.89L1620.92 -0.110296L1621.8 -0.588867L2099.8 876.411L2098.92 876.89ZM2104.92 876.89L1626.92 -0.110296L1627.8 -0.588867L2105.8 876.411L2104.92 876.89ZM2111.92 876.89L1633.92 -0.110296L1634.8 -0.588867L2112.8 876.411L2111.92 876.89ZM2118.92 876.89L1640.92 -0.110296L1641.8 -0.588867L2119.8 876.411L2118.92 876.89ZM2125.92 876.89L1647.92 -0.110296L1648.8 -0.588867L2126.8 876.411L2125.92 876.89ZM2131.92 876.89L1653.92 -0.110296L1654.8 -0.588867L2132.8 876.411L2131.92 876.89ZM2138.92 876.89L1660.92 -0.110296L1661.8 -0.588867L2139.8 876.411L2138.92 876.89ZM2145.92 876.89L1667.92 -0.110296L1668.8 -0.588867L2146.8 876.411L2145.92 876.89ZM2151.92 876.89L1673.92 -0.110296L1674.8 -0.588867L2152.8 876.411L2151.92 876.89ZM2158.92 876.89L1680.92 -0.110296L1681.8 -0.588867L2159.8 876.411L2158.92 876.89ZM2165.92 876.89L1687.92 -0.110296L1688.8 -0.588867L2166.8 876.411L2165.92 876.89ZM2171.92 876.89L1693.92 -0.110296L1694.8 -0.588867L2172.8 876.411L2171.92 876.89ZM2178.92 876.89L1700.92 -0.110296L1701.8 -0.588867L2179.8 876.411L2178.92 876.89ZM2185.92 876.89L1707.92 -0.110296L1708.8 -0.588867L2186.8 876.411L2185.92 876.89ZM2191.92 876.89L1713.92 -0.110296L1714.8 -0.588867L2192.8 876.411L2191.92 876.89ZM2198.92 876.89L1720.92 -0.110296L1721.8 -0.588867L2199.8 876.411L2198.92 876.89ZM2206.92 876.89L1728.92 -0.110296L1729.8 -0.588867L2207.8 876.411L2206.92 876.89ZM2213.92 876.89L1735.92 -0.110296L1736.8 -0.588867L2214.8 876.411L2213.92 876.89ZM2219.92 876.89L1741.92 -0.110296L1742.8 -0.588867L2220.8 876.411L2219.92 876.89ZM2226.92 876.89L1748.92 -0.110296L1749.8 -0.588867L2227.8 876.411L2226.92 876.89ZM2232.92 876.89L1754.92 -0.110296L1755.8 -0.588867L2233.8 876.411L2232.92 876.89ZM2239.92 876.89L1761.92 -0.110296L1762.8 -0.588867L2240.8 876.411L2239.92 876.89ZM2246.92 876.89L1768.92 -0.110296L1769.8 -0.588867L2247.8 876.411L2246.92 876.89ZM2252.92 876.89L1774.92 -0.110296L1775.8 -0.588867L2253.8 876.411L2252.92 876.89ZM2259.92 876.89L1781.92 -0.110296L1782.8 -0.588867L2260.8 876.411L2259.92 876.89ZM2266.92 876.89L1788.92 -0.110296L1789.8 -0.588867L2267.8 876.411L2266.92 876.89ZM2272.92 876.89L1794.92 -0.110296L1795.8 -0.588867L2273.8 876.411L2272.92 876.89ZM2279.92 876.89L1801.92 -0.110296L1802.8 -0.588867L2280.8 876.411L2279.92 876.89ZM2286.92 876.89L1808.92 -0.110296L1809.8 -0.588867L2287.8 876.411L2286.92 876.89ZM2292.92 876.89L1814.92 -0.110296L1815.8 -0.588867L2293.8 876.411L2292.92 876.89ZM2299.92 876.89L1821.92 -0.110296L1822.8 -0.588867L2300.8 876.411L2299.92 876.89ZM2306.92 876.89L1828.92 -0.110296L1829.8 -0.588867L2307.8 876.411L2306.92 876.89ZM2313.92 876.89L1835.92 -0.110296L1836.8 -0.588867L2314.8 876.411L2313.92 876.89ZM2319.92 876.89L1841.92 -0.110296L1842.8 -0.588867L2320.8 876.411L2319.92 876.89ZM2326.92 876.89L1848.92 -0.110296L1849.8 -0.588867L2327.8 876.411L2326.92 876.89ZM2333.92 876.89L1855.92 -0.110296L1856.8 -0.588867L2334.8 876.411L2333.92 876.89ZM2339.92 876.89L1861.92 -0.110296L1862.8 -0.588867L2340.8 876.411L2339.92 876.89ZM2346.92 876.89L1868.92 -0.110296L1869.8 -0.588867L2347.8 876.411L2346.92 876.89ZM2353.92 876.89L1875.92 -0.110296L1876.8 -0.588867L2354.8 876.411L2353.92 876.89ZM2359.92 876.89L1881.92 -0.110296L1882.8 -0.588867L2360.8 876.411L2359.92 876.89ZM2366.92 876.89L1888.92 -0.110296L1889.8 -0.588867L2367.8 876.411L2366.92 876.89ZM2373.92 876.89L1895.92 -0.110296L1896.8 -0.588867L2374.8 876.411L2373.92 876.89ZM2379.92 876.89L1901.92 -0.110296L1902.8 -0.588867L2380.8 876.411L2379.92 876.89ZM2386.92 876.89L1908.92 -0.110296L1909.8 -0.588867L2387.8 876.411L2386.92 876.89Z" fill="url(#paint0_linear_4836_18)" fill-opacity="0.5"/>
<defs>
<linearGradient id="paint0_linear_4836_18" x1="1029.48" y1="907.001" x2="1004.4" y2="27.3803" gradientUnits="userSpaceOnUse">
<stop stop-color="#F9F9FE"/>
<stop offset="0.420619" stop-color="#FFE600"/>
<stop offset="1" stop-color="#F9F9FE"/>
</linearGradient>
</defs>
</svg>
