<svg width="525" height="251" viewBox="0 0 525 251" fill="none" xmlns="http://www.w3.org/2000/svg">
<path d="M214.024 233.429C214.024 224.168 221.532 216.661 230.793 216.661C240.054 216.661 247.561 224.168 247.561 233.429C247.561 242.69 240.054 250.197 230.793 250.197C221.532 250.197 214.024 242.69 214.024 233.429Z" fill="#F6F6F6"/>
<path d="M143.903 233.429C143.903 224.168 151.41 216.661 160.671 216.661C169.932 216.661 177.439 224.168 177.439 233.429C177.439 242.69 169.932 250.197 160.671 250.197C151.41 250.197 143.903 242.69 143.903 233.429Z" fill="#F6F6F6"/>
<path d="M73.7806 233.429C73.7806 224.168 81.288 216.661 90.5489 216.661C99.8097 216.661 107.317 224.168 107.317 233.429C107.317 242.69 99.8097 250.197 90.5488 250.197C81.288 250.197 73.7806 242.69 73.7806 233.429Z" fill="#F6F6F6"/>
<path d="M0.609907 233.429C0.609908 224.168 8.11733 216.661 17.3782 216.661C26.6391 216.661 34.1465 224.168 34.1465 233.429C34.1465 242.69 26.6391 250.197 17.3782 250.197C8.11732 250.197 0.609906 242.69 0.609907 233.429Z" fill="#F6F6F6"/>
<path d="M214.024 160.258C214.024 150.997 221.532 143.49 230.793 143.49C240.054 143.49 247.561 150.997 247.561 160.258C247.561 169.519 240.054 177.026 230.793 177.026C221.532 177.026 214.024 169.519 214.024 160.258Z" fill="#F6F6F6"/>
<path d="M143.902 160.258C143.902 150.997 151.41 143.49 160.671 143.49C169.932 143.49 177.439 150.997 177.439 160.258C177.439 169.519 169.932 177.026 160.671 177.026C151.41 177.026 143.902 169.519 143.902 160.258Z" fill="#F6F6F6"/>
<path d="M73.7806 160.258C73.7806 150.997 81.288 143.49 90.5489 143.49C99.8097 143.49 107.317 150.997 107.317 160.258C107.317 169.519 99.8097 177.026 90.5488 177.026C81.288 177.026 73.7806 169.519 73.7806 160.258Z" fill="#F6F6F6"/>
<path d="M0.609907 160.258C0.609908 150.997 8.11733 143.49 17.3782 143.49C26.6391 143.49 34.1465 150.997 34.1465 160.258C34.1465 169.519 26.6391 177.026 17.3782 177.026C8.11732 177.026 0.609906 169.519 0.609907 160.258Z" fill="#F6F6F6"/>
<path d="M214.024 87.0872C214.024 77.8263 221.532 70.3189 230.793 70.3189C240.054 70.3189 247.561 77.8263 247.561 87.0872C247.561 96.348 240.054 103.855 230.793 103.855C221.532 103.855 214.024 96.348 214.024 87.0872Z" fill="#F6F6F6"/>
<path d="M143.902 87.0872C143.902 77.8263 151.41 70.3189 160.671 70.3189C169.932 70.3189 177.439 77.8263 177.439 87.0872C177.439 96.348 169.932 103.855 160.671 103.855C151.41 103.855 143.902 96.348 143.902 87.0872Z" fill="#F6F6F6"/>
<path d="M73.7806 87.0872C73.7806 77.8263 81.288 70.3189 90.5489 70.3189C99.8097 70.3189 107.317 77.8263 107.317 87.0872C107.317 96.348 99.8097 103.855 90.5488 103.855C81.288 103.855 73.7806 96.348 73.7806 87.0872Z" fill="#F6F6F6"/>
<path d="M0.609907 87.0872C0.609908 77.8263 8.11733 70.3189 17.3782 70.3189C26.6391 70.3189 34.1465 77.8263 34.1465 87.0872C34.1465 96.348 26.6391 103.855 17.3782 103.855C8.11732 103.855 0.609906 96.348 0.609907 87.0872Z" fill="#F6F6F6"/>
<path d="M214.024 16.9651C214.024 7.70423 221.532 0.196813 230.793 0.196814C240.054 0.196815 247.561 7.70424 247.561 16.9651C247.561 26.226 240.054 33.7334 230.793 33.7334C221.532 33.7334 214.024 26.226 214.024 16.9651Z" fill="#F6F6F6"/>
<path d="M143.902 16.9651C143.902 7.70423 151.41 0.196813 160.671 0.196814C169.932 0.196815 177.439 7.70424 177.439 16.9651C177.439 26.226 169.932 33.7334 160.671 33.7334C151.41 33.7334 143.902 26.226 143.902 16.9651Z" fill="#F6F6F6"/>
<path d="M73.7806 16.9651C73.7806 7.70423 81.288 0.196813 90.5489 0.196814C99.8097 0.196815 107.317 7.70424 107.317 16.9651C107.317 26.226 99.8097 33.7334 90.5488 33.7334C81.288 33.7334 73.7806 26.226 73.7806 16.9651Z" fill="#F6F6F6"/>
<path d="M0.609907 16.9651C0.609908 7.70423 8.11733 0.196813 17.3782 0.196814C26.6391 0.196815 34.1465 7.70424 34.1465 16.9651C34.1465 26.226 26.6391 33.7334 17.3782 33.7334C8.11732 33.7334 0.609906 26.226 0.609907 16.9651Z" fill="#F6F6F6"/>
<path d="M515.854 233.429C515.854 230.903 517.901 228.856 520.427 228.856C522.953 228.856 525 230.903 525 233.429C525 235.954 522.953 238.002 520.427 238.002C517.901 238.002 515.854 235.954 515.854 233.429Z" fill="#FFF59C"/>
<path d="M442.683 233.429C442.683 230.903 444.73 228.856 447.256 228.856C449.782 228.856 451.829 230.903 451.829 233.429C451.829 235.954 449.782 238.002 447.256 238.002C444.73 238.002 442.683 235.954 442.683 233.429Z" fill="#FFF59C"/>
<path d="M369.512 233.429C369.512 230.903 371.56 228.856 374.086 228.856C376.611 228.856 378.659 230.903 378.659 233.429C378.659 235.954 376.611 238.002 374.086 238.002C371.56 238.002 369.512 235.954 369.512 233.429Z" fill="#FFF59C"/>
<path d="M299.39 233.429C299.39 230.903 301.438 228.856 303.963 228.856C306.489 228.856 308.537 230.903 308.537 233.429C308.537 235.954 306.489 238.002 303.963 238.002C301.438 238.002 299.39 235.954 299.39 233.429Z" fill="#FFF59C"/>
<path d="M515.854 160.258C515.854 157.732 517.901 155.685 520.427 155.685C522.953 155.685 525 157.732 525 160.258C525 162.784 522.953 164.831 520.427 164.831C517.901 164.831 515.854 162.784 515.854 160.258Z" fill="#FFF59C"/>
<path d="M442.683 160.258C442.683 157.732 444.73 155.685 447.256 155.685C449.782 155.685 451.829 157.732 451.829 160.258C451.829 162.784 449.782 164.831 447.256 164.831C444.73 164.831 442.683 162.784 442.683 160.258Z" fill="#FFF59C"/>
<path d="M369.512 160.258C369.512 157.732 371.56 155.685 374.086 155.685C376.611 155.685 378.659 157.732 378.659 160.258C378.659 162.784 376.611 164.831 374.086 164.831C371.56 164.831 369.512 162.784 369.512 160.258Z" fill="#FFF59C"/>
<path d="M299.39 160.258C299.39 157.732 301.438 155.685 303.963 155.685C306.489 155.685 308.537 157.732 308.537 160.258C308.537 162.784 306.489 164.831 303.963 164.831C301.438 164.831 299.39 162.784 299.39 160.258Z" fill="#FFF59C"/>
<path d="M515.854 90.1358C515.854 87.6101 517.901 85.5626 520.427 85.5626C522.953 85.5626 525 87.6101 525 90.1358C525 92.6615 522.953 94.709 520.427 94.709C517.901 94.709 515.854 92.6615 515.854 90.1358Z" fill="#FFF59C"/>
<path d="M442.683 90.1358C442.683 87.6101 444.73 85.5626 447.256 85.5626C449.782 85.5626 451.829 87.6101 451.829 90.1358C451.829 92.6615 449.782 94.709 447.256 94.709C444.73 94.709 442.683 92.6615 442.683 90.1358Z" fill="#FFF59C"/>
<path d="M369.512 90.1358C369.512 87.6101 371.56 85.5626 374.085 85.5626C376.611 85.5626 378.658 87.6101 378.658 90.1358C378.658 92.6615 376.611 94.709 374.085 94.709C371.56 94.709 369.512 92.6615 369.512 90.1358Z" fill="#FFF59C"/>
<path d="M299.39 90.1358C299.39 87.6101 301.438 85.5626 303.963 85.5626C306.489 85.5626 308.537 87.6101 308.537 90.1358C308.537 92.6615 306.489 94.709 303.963 94.709C301.438 94.709 299.39 92.6615 299.39 90.1358Z" fill="#FFF59C"/>
<path d="M515.854 16.9659C515.854 14.4402 517.901 12.3927 520.427 12.3927C522.953 12.3927 525 14.4402 525 16.9659C525 19.4916 522.953 21.5391 520.427 21.5391C517.901 21.5391 515.854 19.4916 515.854 16.9659Z" fill="#FFF59C"/>
<path d="M442.683 16.9659C442.683 14.4402 444.73 12.3927 447.256 12.3927C449.782 12.3927 451.829 14.4402 451.829 16.9659C451.829 19.4916 449.782 21.5391 447.256 21.5391C444.73 21.5391 442.683 19.4916 442.683 16.9659Z" fill="#FFF59C"/>
<path d="M369.512 16.9659C369.512 14.4402 371.56 12.3927 374.086 12.3927C376.611 12.3927 378.659 14.4402 378.659 16.9659C378.659 19.4916 376.611 21.5391 374.086 21.5391C371.56 21.5391 369.512 19.4916 369.512 16.9659Z" fill="#FFF59C"/>
<path d="M299.39 16.9659C299.39 14.4402 301.438 12.3927 303.963 12.3927C306.489 12.3927 308.537 14.4402 308.537 16.9659C308.537 19.4916 306.489 21.5391 303.963 21.5391C301.438 21.5391 299.39 19.4916 299.39 16.9659Z" fill="#FFF59C"/>
</svg>
