<svg width="222" height="110" viewBox="0 0 222 110" fill="none" xmlns="http://www.w3.org/2000/svg">
<path d="M14.1262 106.214L10.2615 106.214L10.2615 104.05L9.46196 104.05C8.02272 104.05 6.71673 103.87 5.54401 103.509C4.38906 103.131 3.39403 102.59 2.55891 101.887C1.74156 101.184 1.11077 100.309 0.666562 99.2634C0.22235 98.2177 0.000244142 97.0187 0.000244142 95.6665C0.000244142 94.3143 0.22235 93.1153 0.666562 92.0696C1.11077 91.0239 1.74156 90.1494 2.55891 89.4463C3.39403 88.7431 4.38906 88.2112 5.54401 87.8506C6.71673 87.472 8.02272 87.2827 9.46196 87.2827L10.2615 87.2827L10.2615 85.1191L14.1262 85.1191L14.1262 87.2827L14.9258 87.2827C16.365 87.2827 17.6621 87.472 18.8171 87.8506C19.9898 88.2112 20.9848 88.7431 21.8022 89.4463C22.6373 90.1494 23.277 91.0239 23.7212 92.0696C24.1654 93.1153 24.3875 94.3143 24.3875 95.6665C24.3875 97.0187 24.1654 98.2177 23.7212 99.2634C23.277 100.309 22.6373 101.184 21.8022 101.887C20.9848 102.59 19.9898 103.131 18.8171 103.509C17.6621 103.87 16.365 104.05 14.9258 104.05L14.1262 104.05L14.1262 106.214ZM14.1262 102.022L14.9258 102.022C15.6543 102.022 16.3384 101.905 16.978 101.67C17.6355 101.436 18.2041 101.066 18.6838 100.562C19.1636 100.057 19.5456 99.4077 19.8299 98.6144C20.1142 97.803 20.2563 96.8204 20.2563 95.6665C20.2563 94.5126 20.1142 93.539 19.8299 92.7457C19.5456 91.9344 19.1636 91.2763 18.6838 90.7714C18.2041 90.2666 17.6355 89.897 16.978 89.6626C16.3384 89.4282 15.6543 89.311 14.9258 89.311L14.1262 89.311L14.1262 102.022ZM10.2615 89.311L9.46196 89.311C8.73346 89.311 8.04048 89.4282 7.38305 89.6626C6.74339 89.897 6.18368 90.2666 5.70393 90.7714C5.22418 91.2763 4.84216 91.9344 4.55786 92.7457C4.27357 93.539 4.13142 94.5126 4.13142 95.6665C4.13142 96.8204 4.27357 97.803 4.55786 98.6144C4.84216 99.4077 5.22418 100.057 5.70393 100.562C6.18368 101.066 6.74339 101.436 7.38305 101.67C8.04048 101.905 8.73346 102.022 9.46196 102.022L10.2615 102.022L10.2615 89.311Z" fill="black"/>
<path d="M30.3875 100.67C30.3875 102.383 31.4092 103.239 33.4525 103.239L37.1839 103.239L37.1839 98.1005L33.4525 98.1005C31.4092 98.1005 30.3875 98.9569 30.3875 100.67ZM37.1839 96.2074C37.1839 94.9093 36.8463 93.9537 36.1711 93.3407C35.5137 92.7277 34.6519 92.4212 33.5858 92.4212C32.7862 92.4212 32.0044 92.5474 31.2404 92.7998C30.4763 93.0342 29.7922 93.3587 29.1881 93.7734L28.2553 92.1507C28.6462 91.8803 29.0726 91.6459 29.5346 91.4476C30.0143 91.2492 30.503 91.087 31.0005 90.9608C31.498 90.8165 31.9866 90.7083 32.4664 90.6362C32.9639 90.5641 33.4259 90.528 33.8523 90.528C34.9895 90.528 35.9934 90.6633 36.8641 90.9337C37.7348 91.2042 38.4721 91.5918 39.0763 92.0966C39.6804 92.6015 40.1335 93.2055 40.4356 93.9086C40.7554 94.5937 40.9153 95.36 40.9153 96.2074L40.9153 105.132L33.4525 105.132C31.036 105.132 29.2503 104.762 28.0953 104.023C26.9582 103.284 26.3896 102.166 26.3896 100.67C26.3896 99.1733 26.9582 98.0554 28.0953 97.3162C29.2503 96.577 31.036 96.2074 33.4525 96.2074L37.1839 96.2074Z" fill="black"/>
<path d="M51.0309 99.0471L48.2323 99.0471L48.2323 105.132L44.5009 105.132L44.5009 91.0689L48.2323 91.0689L48.2323 97.154L51.0309 97.154L55.162 91.0689L59.1599 91.0689L54.4957 97.9653L59.4265 105.132L55.162 105.132L51.0309 99.0471Z" fill="black"/>
<path d="M75.162 92.9621L69.5649 92.9621L69.5649 105.132L65.8335 105.132L65.8335 92.9621L60.2365 92.9621L60.2365 91.0689L75.162 91.0689L75.162 92.9621Z" fill="black"/>
<path d="M83.9522 103.915C84.5208 103.915 85.0538 103.807 85.5514 103.591C86.0489 103.374 86.4842 103.041 86.8573 102.59C87.2305 102.121 87.5236 101.517 87.7369 100.778C87.9679 100.039 88.0834 99.1462 88.0834 98.1005C88.0834 97.0548 87.9679 96.1623 87.7369 95.4231C87.5236 94.6839 87.2305 94.0889 86.8573 93.6382C86.4842 93.1694 86.0489 92.8268 85.5514 92.6105C85.0538 92.3941 84.5208 92.2859 83.9522 92.2859C83.3836 92.2859 82.8505 92.3941 82.353 92.6105C81.8555 92.8268 81.4202 93.1694 81.047 93.6382C80.6739 94.0889 80.3718 94.6839 80.1408 95.4231C79.9276 96.1623 79.821 97.0548 79.821 98.1005C79.821 99.1462 79.9276 100.039 80.1408 100.778C80.3718 101.517 80.6739 102.121 81.047 102.59C81.4202 103.041 81.8555 103.374 82.353 103.591C82.8505 103.807 83.3836 103.915 83.9522 103.915ZM83.9522 90.528C85.1427 90.528 86.2354 90.6993 87.2305 91.0419C88.2433 91.3664 89.105 91.8532 89.8158 92.5023C90.5265 93.1333 91.0774 93.9266 91.4683 94.8822C91.8769 95.8198 92.0813 96.8925 92.0813 98.1005C92.0813 99.3265 91.8769 100.408 91.4683 101.346C91.0774 102.283 90.5265 103.077 89.8158 103.726C89.105 104.357 88.2433 104.835 87.2305 105.159C86.2354 105.502 85.1427 105.673 83.9522 105.673C82.7439 105.673 81.6423 105.502 80.6472 105.159C79.6522 104.835 78.7993 104.357 78.0886 103.726C77.3778 103.077 76.8181 102.283 76.4095 101.346C76.0186 100.408 75.8231 99.3265 75.8231 98.1005C75.8231 96.8925 76.0186 95.8198 76.4095 94.8822C76.8181 93.9266 77.3778 93.1333 78.0886 92.5023C78.7993 91.8532 79.6522 91.3664 80.6472 91.0419C81.6423 90.6993 82.7439 90.528 83.9522 90.528Z" fill="black"/>
<path d="M98.8829 92.9621L98.8829 103.239L102.215 103.239C102.819 103.239 103.369 103.149 103.867 102.969C104.382 102.77 104.818 102.464 105.173 102.049C105.546 101.634 105.83 101.102 106.026 100.453C106.239 99.8043 106.346 99.02 106.346 98.1005C106.346 97.181 106.239 96.3967 106.026 95.7476C105.83 95.0986 105.546 94.5667 105.173 94.152C104.818 93.7373 104.382 93.4398 103.867 93.2595C103.369 93.0612 102.819 92.9621 102.215 92.9621L98.8829 92.9621ZM102.215 91.0689C103.441 91.0689 104.551 91.2312 105.546 91.5557C106.559 91.8803 107.421 92.349 108.131 92.9621C108.842 93.5751 109.384 94.3143 109.757 95.1797C110.148 96.0451 110.344 97.0187 110.344 98.1005C110.344 99.1823 110.148 100.156 109.757 101.021C109.384 101.887 108.842 102.626 108.131 103.239C107.421 103.852 106.559 104.321 105.546 104.645C104.551 104.97 103.441 105.132 102.215 105.132L98.8829 105.132L98.8829 110L95.1515 110L95.1515 91.0689L102.215 91.0689Z" fill="black"/>
<path d="M110.343 103.743L111.182 103.743C111.742 103.743 112.236 103.501 112.665 103.016C113.094 102.531 113.346 101.706 113.421 100.542L114.4 85.1191L131.049 85.1191L131.049 105.49L126.991 105.49L126.991 87.3017L118.178 87.3017L117.338 100.542C117.208 102.444 116.695 103.821 115.799 104.675C114.923 105.509 113.71 105.926 112.162 105.926C111.677 105.926 111.248 105.878 110.875 105.781C110.669 105.742 110.492 105.693 110.343 105.635L110.343 103.743Z" fill="#BEBEBE"/>
<path d="M150.637 90.3572L150.637 105.49L146.72 105.49L146.72 94.1403L146.44 94.1403L140.005 105.49L134.968 105.49L134.968 90.3572L138.885 90.3572L138.885 101.706L139.165 101.706L145.601 90.3572L150.637 90.3572Z" fill="#BEBEBE"/>
<path d="M167.571 93.9948C167.571 95.896 166.405 97.0601 164.073 97.4869C165.417 97.7003 166.424 98.1562 167.095 98.8546C167.786 99.5336 168.131 100.387 168.131 101.415C168.131 102.075 167.981 102.686 167.683 103.249C167.403 103.811 166.946 104.306 166.312 104.733C165.678 105.14 164.866 105.46 163.878 105.693C162.889 105.945 161.695 106.072 160.296 106.072C158.748 106.072 157.339 105.858 156.071 105.431C154.821 104.985 153.805 104.471 153.021 103.889L154.14 102.143C154.924 102.647 155.782 103.094 156.715 103.482C157.647 103.85 158.748 104.035 160.016 104.035C161.49 104.035 162.507 103.792 163.066 103.307C163.644 102.803 163.934 102.075 163.934 101.124C163.934 100.465 163.7 99.9119 163.234 99.4657C162.768 99.0195 162.115 98.7964 161.275 98.7964L156.379 98.7964L156.379 96.7594L160.716 96.7594C161.555 96.7594 162.208 96.5363 162.674 96.0901C163.141 95.6244 163.374 95.023 163.374 94.2858C163.374 93.5486 163.122 92.9569 162.618 92.5107C162.134 92.0451 161.359 91.8123 160.296 91.8123C159.102 91.8123 158.039 92.0063 157.106 92.3943C156.192 92.7629 155.344 93.1994 154.56 93.7038L153.441 91.9578C154.224 91.3758 155.241 90.8714 156.491 90.4445C157.741 89.9983 159.102 89.7752 160.576 89.7752C161.77 89.7752 162.805 89.8916 163.682 90.1244C164.558 90.3572 165.286 90.6773 165.864 91.0848C166.443 91.4728 166.872 91.919 167.151 92.4234C167.431 92.9278 167.571 93.4516 167.571 93.9948Z" fill="#BEBEBE"/>
<path d="M187.007 90.3572L187.007 105.49L183.089 105.49L183.089 94.1403L182.81 94.1403L176.374 105.49L171.338 105.49L171.338 90.3572L175.255 90.3572L175.255 101.706L175.535 101.706L181.97 90.3572L187.007 90.3572Z" fill="#BEBEBE"/>
<path d="M206.319 90.3572L206.319 105.49L202.402 105.49L202.402 98.7964L194.847 98.7964L194.847 105.49L190.929 105.49L190.929 90.3572L194.847 90.3572L194.847 96.7594L202.402 96.7594L202.402 90.3572L206.319 90.3572Z" fill="#BEBEBE"/>
<path d="M222 92.3943L214.165 92.3943L214.165 105.49L210.248 105.49L210.248 90.3572L222 90.3572L222 92.3943Z" fill="#BEBEBE"/>
<path d="M104.674 61.5477L104.674 3.39421L99.7918 1.24467e-09L115.833 2.99125e-06L115.833 56.8215L119.248 60.3512C119.689 60.8071 120.182 61.2087 120.716 61.5477L104.674 61.5477Z" fill="#BEBEBE"/>
<path d="M123.646 42.9456L123.646 20.8218L120.979 19.0388L120.979 11.0138L130.046 16.6745L130.046 47.0928L120.979 52.7536L120.979 44.7285L123.646 42.9456Z" fill="#BEBEBE"/>
<path d="M97.0382 20.8218L97.0382 42.9456L99.7049 44.7285L99.7049 52.7536L90.6379 47.0928L90.6379 16.6745L99.7049 11.0138L99.7049 19.0388L97.0382 20.8218Z" fill="#BEBEBE"/>
</svg>
