<svg width="304" height="54" viewBox="0 0 304 54" fill="none" xmlns="http://www.w3.org/2000/svg">
<g clip-path="url(#clip0_39_2)">
<path d="M62.9876 38.6221H58.5375V36.1714H57.6168C55.9595 36.1714 54.4557 35.9672 53.1053 35.5587C51.7754 35.1298 50.6296 34.5171 49.668 33.7206C48.7268 32.9241 48.0004 31.9336 47.4889 30.7491C46.9774 29.5646 46.7217 28.2064 46.7217 26.6747C46.7217 25.143 46.9774 23.7849 47.4889 22.6003C48.0004 21.4158 48.7268 20.4253 49.668 19.6288C50.6296 18.8323 51.7754 18.2298 53.1053 17.8214C54.4557 17.3925 55.9595 17.178 57.6168 17.178H58.5375V14.7273H62.9876V17.178H63.9083C65.5656 17.178 67.0592 17.3925 68.3892 17.8214C69.7395 18.2298 70.8853 18.8323 71.8265 19.6288C72.7881 20.4253 73.5247 21.4158 74.0362 22.6003C74.5477 23.7849 74.8035 25.143 74.8035 26.6747C74.8035 28.2064 74.5477 29.5646 74.0362 30.7491C73.5247 31.9336 72.7881 32.9241 71.8265 33.7206C70.8853 34.5171 69.7395 35.1298 68.3892 35.5587C67.0592 35.9672 65.5656 36.1714 63.9083 36.1714H62.9876V38.6221ZM62.9876 33.8738H63.9083C64.7472 33.8738 65.5349 33.7411 66.2715 33.4756C67.0285 33.2101 67.6833 32.7914 68.2357 32.2195C68.7881 31.6477 69.228 30.9125 69.5554 30.0139C69.8828 29.0948 70.0464 27.9818 70.0464 26.6747C70.0464 25.3676 69.8828 24.2648 69.5554 23.3662C69.228 22.4472 68.7881 21.7017 68.2357 21.1299C67.6833 20.558 67.0285 20.1394 66.2715 19.8739C65.5349 19.6084 64.7472 19.4756 63.9083 19.4756H62.9876V33.8738ZM58.5375 19.4756H57.6168C56.7779 19.4756 55.98 19.6084 55.2229 19.8739C54.4864 20.1394 53.8419 20.558 53.2894 21.1299C52.737 21.7017 52.2971 22.4472 51.9697 23.3662C51.6424 24.2648 51.4787 25.3676 51.4787 26.6747C51.4787 27.9818 51.6424 29.0948 51.9697 30.0139C52.2971 30.9125 52.737 31.6477 53.2894 32.2195C53.8419 32.7914 54.4864 33.2101 55.2229 33.4756C55.98 33.7411 56.7779 33.8738 57.6168 33.8738H58.5375V19.4756Z" fill="black"/>
<path d="M81.7124 32.3421C81.7124 34.2823 82.8889 35.2524 85.2418 35.2524H89.5385V29.4318H85.2418C82.8889 29.4318 81.7124 30.4019 81.7124 32.3421ZM89.5385 27.2874C89.5385 25.817 89.1497 24.7345 88.3722 24.0402C87.6152 23.3458 86.6229 22.9986 85.3953 22.9986C84.4745 22.9986 83.5743 23.1415 82.6945 23.4275C81.8147 23.693 81.027 24.0606 80.3313 24.5303L79.2572 22.6922C79.7073 22.3859 80.1983 22.1204 80.7303 21.8957C81.2827 21.6711 81.8454 21.4873 82.4183 21.3443C82.9912 21.1809 83.5538 21.0584 84.1063 20.9767C84.6792 20.895 85.2111 20.8542 85.7022 20.8542C87.0116 20.8542 88.1676 21.0073 89.1702 21.3137C90.1727 21.62 91.0219 22.0591 91.7175 22.631C92.4132 23.2028 92.9349 23.887 93.2827 24.6835C93.651 25.4596 93.8351 26.3275 93.8351 27.2874V37.3968H85.2418C82.4592 37.3968 80.4029 36.9781 79.073 36.1408C77.7636 35.3034 77.1088 34.0372 77.1088 32.3421C77.1088 30.647 77.7636 29.3808 79.073 28.5434C80.4029 27.7061 82.4592 27.2874 85.2418 27.2874H89.5385Z" fill="black"/>
<path d="M105.483 30.504H102.261V37.3968H97.964V21.4669H102.261V28.3596H105.483L110.24 21.4669H114.844L109.473 29.2786L115.151 37.3968H110.24L105.483 30.504Z" fill="black"/>
<path d="M133.27 23.6113H126.825V37.3968H122.528V23.6113H116.083V21.4669H133.27V23.6113Z" fill="black"/>
<path d="M143.392 36.0182C144.047 36.0182 144.66 35.8957 145.233 35.6506C145.806 35.4055 146.307 35.0277 146.737 34.5171C147.167 33.9861 147.504 33.302 147.75 32.4646C148.016 31.6273 148.149 30.6163 148.149 29.4318C148.149 28.2473 148.016 27.2363 147.75 26.399C147.504 25.5617 147.167 24.8877 146.737 24.3771C146.307 23.8461 145.806 23.4581 145.233 23.213C144.66 22.968 144.047 22.8454 143.392 22.8454C142.737 22.8454 142.123 22.968 141.55 23.213C140.978 23.4581 140.476 23.8461 140.047 24.3771C139.617 24.8877 139.269 25.5617 139.003 26.399C138.758 27.2363 138.635 28.2473 138.635 29.4318C138.635 30.6163 138.758 31.6273 139.003 32.4646C139.269 33.302 139.617 33.9861 140.047 34.5171C140.476 35.0277 140.978 35.4055 141.55 35.6506C142.123 35.8957 142.737 36.0182 143.392 36.0182ZM143.392 20.8542C144.763 20.8542 146.021 21.0482 147.167 21.4362C148.333 21.8038 149.325 22.3553 150.144 23.0905C150.962 23.8053 151.596 24.7039 152.047 25.7863C152.517 26.8483 152.752 28.0635 152.752 29.4318C152.752 30.8206 152.517 32.046 152.047 33.1079C151.596 34.1699 150.962 35.0685 150.144 35.8038C149.325 36.5186 148.333 37.0598 147.167 37.4274C146.021 37.8154 144.763 38.0095 143.392 38.0095C142.001 38.0095 140.732 37.8154 139.586 37.4274C138.44 37.0598 137.458 36.5186 136.64 35.8038C135.822 35.0685 135.177 34.1699 134.706 33.1079C134.256 32.046 134.031 30.8206 134.031 29.4318C134.031 28.0635 134.256 26.8483 134.706 25.7863C135.177 24.7039 135.822 23.8053 136.64 23.0905C137.458 22.3553 138.44 21.8038 139.586 21.4362C140.732 21.0482 142.001 20.8542 143.392 20.8542Z" fill="black"/>
<path d="M160.585 23.6113V35.2524H164.421C165.116 35.2524 165.751 35.1502 166.324 34.946C166.917 34.7214 167.418 34.3742 167.827 33.9044C168.257 33.4347 168.584 32.8322 168.81 32.097C169.055 31.3618 169.178 30.4734 169.178 29.4318C169.178 28.3902 169.055 27.5018 168.81 26.7666C168.584 26.0314 168.257 25.4289 167.827 24.9592C167.418 24.4895 166.917 24.1525 166.324 23.9483C165.751 23.7236 165.116 23.6113 164.421 23.6113H160.585ZM164.421 21.4669C165.833 21.4669 167.111 21.6507 168.257 22.0183C169.423 22.3859 170.416 22.9169 171.234 23.6113C172.053 24.3057 172.677 25.143 173.106 26.1233C173.556 27.1036 173.781 28.2064 173.781 29.4318C173.781 30.6572 173.556 31.76 173.106 32.7403C172.677 33.7206 172.053 34.558 171.234 35.2524C170.416 35.9467 169.423 36.4777 168.257 36.8453C167.111 37.213 165.833 37.3968 164.421 37.3968H160.585V42.911H156.288V21.4669H164.421Z" fill="black"/>
<path d="M181.529 35.1752H182.45C183.064 35.1752 183.606 34.92 184.077 34.4094C184.547 33.8988 184.824 33.0308 184.905 31.8055L185.98 15.5692H204.24V37.0133H199.79V17.8668H190.123L189.202 31.8055C189.059 33.8069 188.496 35.2569 187.514 36.1555C186.552 37.0337 185.223 37.4728 183.524 37.4728C182.992 37.4728 182.522 37.4218 182.113 37.3197C181.888 37.2788 181.693 37.2277 181.529 37.1665V35.1752Z" fill="#FFB800"/>
<path d="M225.726 21.0834V37.0133H221.429V25.0659H221.123L214.064 37.0133H208.539V21.0834H212.836V33.0308H213.143L220.202 21.0834H225.726Z" fill="#FFB800"/>
<path d="M244.3 24.9127C244.3 26.9142 243.021 28.1395 240.464 28.5888C241.937 28.8135 243.042 29.2934 243.778 30.0287C244.535 30.7435 244.914 31.6421 244.914 32.7245C244.914 33.4189 244.75 34.0622 244.423 34.6545C244.116 35.2467 243.614 35.7675 242.919 36.2168C242.223 36.6457 241.333 36.9827 240.249 37.2277C239.164 37.4932 237.855 37.626 236.32 37.626C234.622 37.626 233.077 37.4013 231.686 36.952C230.315 36.4823 229.2 35.9411 228.341 35.3284L229.568 33.4903C230.428 34.0213 231.369 34.4911 232.392 34.8995C233.415 35.2876 234.622 35.4816 236.013 35.4816C237.63 35.4816 238.745 35.2263 239.359 34.7157C239.993 34.1847 240.31 33.4189 240.31 32.4181C240.31 31.7238 240.054 31.1417 239.543 30.672C239.031 30.2023 238.315 29.9674 237.394 29.9674H232.024V27.823H236.781C237.701 27.823 238.417 27.5881 238.929 27.1184C239.441 26.6282 239.696 25.9951 239.696 25.2191C239.696 24.443 239.42 23.8201 238.868 23.3504C238.336 22.8602 237.487 22.6151 236.32 22.6151C235.011 22.6151 233.845 22.8194 232.822 23.2278C231.819 23.6159 230.888 24.0754 230.029 24.6064L228.801 22.7683C229.66 22.1556 230.776 21.6246 232.146 21.1753C233.517 20.7056 235.011 20.4707 236.627 20.4707C237.937 20.4707 239.072 20.5933 240.034 20.8383C240.996 21.0834 241.793 21.4204 242.428 21.8493C243.062 22.2577 243.533 22.7275 243.839 23.2585C244.146 23.7894 244.3 24.3409 244.3 24.9127Z" fill="#FFB800"/>
<path d="M265.618 21.0834V37.0133H261.321V25.0659H261.014L253.955 37.0133H248.431V21.0834H252.728V33.0308H253.035L260.093 21.0834H265.618Z" fill="#FFB800"/>
<path d="M286.8 21.0834V37.0133H282.503V29.9674H274.217V37.0133H269.92V21.0834H274.217V27.823H282.503V21.0834H286.8Z" fill="#FFB800"/>
<path d="M304 23.2278H295.407V37.0133H291.11V21.0834H304V23.2278Z" fill="#FFB800"/>
<path d="M12.0206 2.97797L21.8001 2.62142e-06L7.74207 0L12.0206 2.97797Z" fill="#FFB800"/>
<path d="M21.8001 2.62142e-06L12.0206 2.97797V54H21.8001V49.8534V2.62142e-06Z" fill="#FFB800"/>
<path d="M21.8001 49.8534V54L26.0786 54C25.6109 53.7026 25.1793 53.3503 24.7928 52.9503L21.8001 49.8534Z" fill="#FFB800"/>
<path d="M34.4265 34.0174L28.8177 37.7717L28.8177 18.3609L34.4265 22.1152L34.4265 34.0174Z" fill="#FFB800"/>
<path d="M26.4807 16.7967L26.4807 9.75574L34.4265 14.7223V22.1152L26.4807 16.7967Z" fill="#FFB800"/>
<path d="M26.4807 39.336V46.3769L34.4265 41.4103V34.0174L26.4807 39.336Z" fill="#FFB800"/>
<path d="M0 22.1152L5.60883 18.3609V37.7717L0 34.0174V22.1152Z" fill="#FFB800"/>
<path d="M7.94584 39.336V46.3769L0 41.4103V34.0174L7.94584 39.336Z" fill="#FFB800"/>
<path d="M7.94584 16.7966V9.75573L0 14.7223V22.1152L7.94584 16.7966Z" fill="#FFB800"/>
</g>
<defs>
<clipPath id="clip0_39_2">
<rect width="304" height="54" fill="white"/>
</clipPath>
</defs>
</svg>
